<?xml version="1.0" encoding="UTF-8"?>
<!DOCTYPE svg PUBLIC "-//W3C//DTD SVG 1.1//EN" "http://www.w3.org/Graphics/SVG/1.1/DTD/svg11.dtd">
<!-- Creator: CorelDRAW 2019 (64-Bit) -->
<svg xmlns="http://www.w3.org/2000/svg" xml:space="preserve" width="350px" height="149px" version="1.1" style="shape-rendering:geometricPrecision; text-rendering:geometricPrecision; image-rendering:optimizeQuality; fill-rule:evenodd; clip-rule:evenodd"
viewBox="0 0 173.27 73.87"
 xmlns:xlink="http://www.w3.org/1999/xlink">
 <defs>
  <style type="text/css">
   <![CDATA[
    .fil2 {fill:#FEFEFE}
    .fil0 {fill:#D5262B}
    .fil1 {fill:#2B2A29;fill-rule:nonzero}
   ]]>
  </style>
 </defs>
 <g id="Layer_x0020_1">
  <metadata id="CorelCorpID_0Corel-Layer"/>
  <g id="_2812898554464">
   <path class="fil0" d="M87.27 10.71c12.39,0 22.44,10.05 22.44,22.44 0,12.39 -10.05,22.44 -22.44,22.44 -12.39,0 -22.44,-10.05 -22.44,-22.44 0,-12.39 10.05,-22.44 22.44,-22.44z"/>
   <path class="fil1" d="M0 43.9c4.17,2.61 8.28,3.92 12.33,3.92 5.22,0 7.84,-1.48 7.84,-4.44 0,-2.06 -2.07,-3.78 -6.2,-5.21 -6.03,-2.02 -9.86,-4.01 -11.48,-5.98 -1.63,-1.96 -2.45,-4.48 -2.45,-7.54 0,-4.05 1.65,-7.23 4.96,-9.54 3.32,-2.31 7.57,-3.46 12.77,-3.46 3.63,0 7.25,0.58 10.88,1.72l0 9.08c-3.27,-1.95 -6.87,-2.92 -10.76,-2.92 -2.06,0 -3.71,0.38 -4.97,1.16 -1.24,0.77 -1.87,1.81 -1.87,3.08 0,2.11 1.75,3.78 5.24,5.01 3.98,1.43 6.89,2.63 8.76,3.62 1.87,0.97 3.32,2.29 4.37,3.97 1.04,1.68 1.56,3.66 1.56,5.93 0,4.26 -1.71,7.57 -5.11,9.92 -3.4,2.34 -7.88,3.52 -13.47,3.52 -4.68,0 -8.82,-0.75 -12.4,-2.24l0 -9.6zm62.89 10.36c-1.88,0.96 -4.53,1.44 -7.92,1.44 -8.62,0 -12.92,-4.56 -12.92,-13.69l0 -20.88 -6.96 0 0 -8.48 6.96 0 0 -9.41 11.12 -3.24 0 12.65 9.72 0 0 8.48 -9.72 0 0 18.93c0,4.64 1.83,6.95 5.49,6.95 1.52,0 2.92,-0.42 4.23,-1.27l0 8.52z"/>
   <polygon class="fil0" points="98.85,34.01 109.66,34.01 109.66,55.13 98.85,55.13 "/>
   <path class="fil2" d="M90.14 23.42c7.51,0 13.6,6.09 13.6,13.6 0,7.51 -6.09,13.6 -13.6,13.6 -7.51,0 -13.6,-6.09 -13.6,-13.6 0,-7.51 6.09,-13.6 13.6,-13.6z"/>
   <path class="fil1" d="M140.66 22.93c-1.46,-0.89 -3.26,-1.32 -5.39,-1.32 -2.8,0 -5.04,1.14 -6.72,3.42 -1.68,2.29 -2.53,5.34 -2.53,9.18l0 20.49 -11.16 0 0 -42.05 11.16 0 0 8.08 0.12 0c2.05,-5.87 5.75,-8.81 11.08,-8.81 1.53,0 2.68,0.19 3.44,0.56l0 10.45zm32.61 31.33c-1.88,0.96 -4.53,1.44 -7.92,1.44 -8.61,0 -12.92,-4.57 -12.92,-13.69l0 -20.88 -6.96 0 0 -8.48 6.96 0 0 -9.41 11.12 -3.24 0 12.65 9.72 0 0 8.48 -9.72 0 0 18.93c0,4.64 1.83,6.95 5.49,6.95 1.52,0 2.92,-0.42 4.23,-1.27l0 8.52z"/>
   <g>
    <path class="fil1" d="M64.88 66c0,-0.1 -0.02,-0.26 -0.05,-0.47 -0.04,-0.21 -0.05,-0.37 -0.05,-0.48 0,-0.06 0,-0.15 0.01,-0.28 0.01,-0.13 0.01,-0.23 0.01,-0.29 0,-0.17 0,-0.43 -0.02,-0.78 -0.02,-0.35 -0.02,-0.61 -0.02,-0.78 0,-0.3 0.01,-0.67 0.03,-1.13 0.03,-0.46 0.06,-1 0.11,-1.62 0.02,-0.23 0.05,-0.4 0.11,-0.51 0.05,-0.12 0.12,-0.18 0.21,-0.18 0.03,0 0.06,0.03 0.09,0.08 0.03,0.06 0.06,0.15 0.09,0.26 0.08,0.1 0.16,0.2 0.24,0.28 0.06,0.07 0.11,0.17 0.14,0.28 0.03,0.11 0.04,0.24 0.04,0.39 0,0.13 -0.02,0.33 -0.06,0.58 -0.04,0.25 -0.06,0.44 -0.06,0.57 0,0.24 -0.01,0.45 -0.02,0.61 -0.01,0.17 -0.03,0.29 -0.06,0.39l-0.05 0.22c0.01,0.14 0.03,0.3 0.04,0.47 -0.01,0.27 -0.02,0.55 -0.02,0.84 0,0.28 0.01,0.58 0.05,0.88 0.03,0.3 0.08,0.61 0.14,0.91 0.08,0.42 0.18,0.73 0.3,0.93 0.12,0.21 0.25,0.32 0.39,0.32 0.08,0 0.15,-0.03 0.21,-0.07 0.06,-0.06 0.12,-0.13 0.18,-0.23 0.05,-0.09 0.09,-0.17 0.13,-0.26 0.04,-0.09 0.08,-0.18 0.12,-0.26 0.05,-0.08 0.1,-0.18 0.15,-0.29 0.05,-0.11 0.1,-0.25 0.17,-0.41 0.05,-0.28 0.12,-0.57 0.19,-0.85 0.07,-0.29 0.14,-0.58 0.22,-0.87 0.01,-0.09 0.03,-0.21 0.06,-0.36 0.03,-0.15 0.06,-0.32 0.09,-0.51 0.06,-0.23 0.12,-0.56 0.19,-0.98 0.06,-0.41 0.13,-0.92 0.21,-1.52 0.03,-0.09 0.06,-0.21 0.1,-0.36 0.04,-0.14 0.08,-0.31 0.13,-0.5 0.02,-0.07 0.04,-0.18 0.08,-0.33 0.04,-0.15 0.09,-0.34 0.16,-0.57 0.03,-0.11 0.08,-0.2 0.15,-0.26 0.07,-0.06 0.16,-0.09 0.27,-0.09 0.06,0 0.11,0.06 0.14,0.18 0.03,0.11 0.04,0.28 0.04,0.52 0,0.45 -0.04,0.99 -0.12,1.64 -0.08,0.64 -0.21,1.38 -0.38,2.21 -0.01,0.08 -0.02,0.17 -0.05,0.28 -0.02,0.12 -0.05,0.25 -0.08,0.4 0,0.09 -0.01,0.19 -0.02,0.3 -0.01,0.12 -0.03,0.25 -0.05,0.4 -0.05,0.26 -0.1,0.54 -0.14,0.84 -0.03,0.3 -0.06,0.62 -0.08,0.94 0,0.05 -0.01,0.12 -0.02,0.21 -0.01,0.1 -0.03,0.21 -0.05,0.34 -0.02,0.13 -0.03,0.25 -0.04,0.35 -0.01,0.1 -0.01,0.2 -0.01,0.29 0.01,0.13 0.02,0.25 0.03,0.36 0.05,0.06 0.08,0.12 0.1,0.16 0.02,0.05 0.04,0.09 0.04,0.11 -0.03,0.09 -0.06,0.18 -0.11,0.28 -0.05,0.1 -0.11,0.2 -0.19,0.32 -0.08,0.12 -0.16,0.22 -0.24,0.28 -0.08,0.07 -0.15,0.1 -0.22,0.1 -0.06,0 -0.12,-0.05 -0.17,-0.16 -0.06,-0.11 -0.09,-0.21 -0.09,-0.3l0 -0.06c0.01,-0.05 0.03,-0.1 0.03,-0.16 0,-0.02 0,-0.05 -0.01,-0.07 -0.01,-0.03 -0.01,-0.06 -0.02,-0.11 0.01,-0.02 0.02,-0.05 0.03,-0.1 0.01,-0.05 0.03,-0.1 0.04,-0.16 -0.01,-0.03 -0.01,-0.05 -0.02,-0.09 -0.01,-0.03 -0.02,-0.07 -0.04,-0.12 0.01,-0.03 0.01,-0.06 0.02,-0.1 0.01,-0.04 0.02,-0.09 0.03,-0.15 0,-0.04 0,-0.09 -0.01,-0.14 0,-0.03 0.01,-0.08 0.02,-0.14 0,-0.07 0.01,-0.15 0.02,-0.24 0.01,-0.08 0.03,-0.15 0.03,-0.2 0.01,-0.06 0.02,-0.1 0.02,-0.12 0,-0.04 -0.01,-0.07 -0.02,-0.1 0,-0.02 -0.02,-0.04 -0.03,-0.05 -0.02,0.01 -0.05,0.04 -0.08,0.1 -0.04,0.06 -0.08,0.15 -0.12,0.26 -0.06,0.12 -0.11,0.22 -0.14,0.3 -0.04,0.08 -0.07,0.13 -0.08,0.16l-0.02 0.1c-0.1,0.17 -0.18,0.32 -0.25,0.43 -0.07,0.12 -0.13,0.2 -0.16,0.24 -0.07,0.09 -0.15,0.16 -0.24,0.22 -0.09,0.07 -0.2,0.13 -0.32,0.17 -0.07,0.02 -0.13,0.04 -0.18,0.07 -0.13,0 -0.25,-0.02 -0.35,-0.07 -0.09,-0.04 -0.17,-0.11 -0.22,-0.19 -0.21,-0.34 -0.36,-0.71 -0.47,-1.12 -0.1,-0.42 -0.15,-0.88 -0.15,-1.38zm4.43 1.21c0.03,-0.05 0.06,-0.1 0.08,-0.15 0.03,-0.05 0.06,-0.1 0.09,-0.16l0.36 -0.35c0.09,-0.09 0.21,-0.24 0.38,-0.47 0.16,-0.23 0.37,-0.53 0.6,-0.91 0.03,-0.05 0.07,-0.08 0.11,-0.1 0.05,-0.03 0.1,-0.04 0.15,-0.04 0.28,0 0.49,0.13 0.63,0.4 0.14,0.27 0.21,0.67 0.21,1.2 0,0.45 -0.12,0.88 -0.37,1.31 -0.25,0.42 -0.38,0.72 -0.38,0.88 0,0.12 0.01,0.21 0.03,0.27 0.02,0.06 0.05,0.09 0.09,0.09l0.04 -0.01c0.04,-0.04 0.09,-0.1 0.15,-0.15 0.06,-0.06 0.13,-0.12 0.2,-0.2 0.07,-0.16 0.22,-0.36 0.46,-0.61 0.06,-0.07 0.15,-0.19 0.26,-0.36 0.12,-0.17 0.26,-0.38 0.42,-0.64l0.21 0.64c-0.11,0.14 -0.24,0.3 -0.4,0.49 -0.16,0.19 -0.35,0.42 -0.57,0.67 -0.04,0.05 -0.09,0.11 -0.14,0.19 -0.06,0.08 -0.13,0.17 -0.22,0.26 -0.03,0.03 -0.06,0.06 -0.1,0.11 -0.04,0.04 -0.07,0.09 -0.11,0.14 -0.02,0.06 -0.03,0.12 -0.05,0.18 0,0.07 0.04,0.24 0.12,0.5 0.08,0.27 0.12,0.51 0.12,0.72 0,0.38 -0.08,0.75 -0.25,1.11 -0.16,0.36 -0.41,0.71 -0.74,1.03 -0.2,0.21 -0.4,0.36 -0.59,0.46 -0.18,0.11 -0.36,0.16 -0.53,0.16 -0.19,0 -0.34,-0.07 -0.44,-0.19 -0.09,-0.12 -0.14,-0.31 -0.14,-0.57 0,-0.15 0.03,-0.33 0.1,-0.53 0.07,-0.21 0.17,-0.44 0.3,-0.7 0.08,-0.15 0.19,-0.33 0.32,-0.52 0.12,-0.2 0.27,-0.43 0.44,-0.68 0.14,-0.19 0.25,-0.35 0.31,-0.45 0.07,-0.11 0.1,-0.18 0.1,-0.21 0,-0.03 -0.02,-0.13 -0.06,-0.33 -0.04,-0.19 -0.06,-0.33 -0.06,-0.42 0,-0.29 0.11,-0.67 0.34,-1.12 0.22,-0.45 0.34,-0.76 0.34,-0.93 0,-0.06 -0.02,-0.13 -0.04,-0.2 -0.02,-0.08 -0.04,-0.17 -0.07,-0.28 -0.04,-0.11 -0.08,-0.19 -0.12,-0.25 -0.04,-0.05 -0.08,-0.07 -0.12,-0.07 -0.03,0 -0.08,0.02 -0.14,0.06 -0.06,0.04 -0.13,0.11 -0.21,0.19 -0.06,0.08 -0.12,0.16 -0.17,0.22 -0.05,0.07 -0.08,0.13 -0.11,0.17 -0.02,0.04 -0.05,0.08 -0.1,0.14 -0.06,0.07 -0.13,0.14 -0.22,0.22 -0.01,0.01 -0.04,0.06 -0.09,0.13 -0.05,0.08 -0.12,0.18 -0.21,0.3l-0.21 -0.64zm1.56 4.08c0,-0.04 -0.02,-0.14 -0.05,-0.28 -0.03,-0.15 -0.06,-0.23 -0.08,-0.23 -0.08,0 -0.3,0.32 -0.66,0.94 -0.35,0.62 -0.53,1 -0.53,1.15 0,0.09 0.01,0.15 0.03,0.19 0.03,0.04 0.06,0.06 0.11,0.06 0.23,0 0.48,-0.17 0.75,-0.52 0.27,-0.34 0.4,-0.67 0.4,-0.97 0.01,-0.13 0.02,-0.25 0.03,-0.34zm5.12 -6.57c0.03,-0.1 0.07,-0.22 0.11,-0.36 0.05,-0.14 0.1,-0.26 0.15,-0.38 0.05,-0.09 0.11,-0.16 0.16,-0.22 0.06,-0.06 0.12,-0.07 0.19,-0.04 0.02,0.1 0.04,0.15 0.06,0.17 0.02,0.02 0.05,0.04 0.09,0.05 0.03,0.01 0.05,0.04 0.05,0.09 0,0.11 0.01,0.18 0.03,0.2 0.02,0.03 0.01,0.12 -0.03,0.28 -0.07,0.28 -0.18,0.62 -0.33,1.02 -0.14,0.4 -0.23,0.66 -0.27,0.79 -0.05,0.16 -0.1,0.3 -0.14,0.42 -0.04,0.12 -0.07,0.25 -0.1,0.4 -0.03,0.12 -0.05,0.24 -0.07,0.34 -0.02,0.11 -0.02,0.2 -0.02,0.28 0,0.11 0.02,0.18 0.08,0.19 0.05,0.02 0.11,-0.01 0.16,-0.06 0.09,-0.08 0.18,-0.19 0.27,-0.34 0.09,-0.14 0.16,-0.26 0.2,-0.36l0.21 0.64c-0.05,0.09 -0.1,0.18 -0.15,0.27 -0.05,0.09 -0.1,0.17 -0.16,0.25 -0.07,0.1 -0.14,0.2 -0.22,0.3 -0.07,0.09 -0.15,0.17 -0.24,0.22 -0.08,0.06 -0.16,0.1 -0.26,0.12 -0.09,0.02 -0.18,0.02 -0.27,0 -0.09,-0.01 -0.16,-0.06 -0.22,-0.13 -0.07,-0.08 -0.11,-0.17 -0.14,-0.28 -0.03,-0.13 -0.04,-0.28 -0.02,-0.45 0.01,-0.18 0.06,-0.36 0.13,-0.55 -0.01,-0.04 0,-0.07 0.03,-0.1 0.03,-0.02 0.03,-0.05 0,-0.07 -0.03,-0.03 -0.05,-0.02 -0.07,0.02 -0.01,0.04 -0.02,0.09 -0.03,0.13 -0.04,0.1 -0.09,0.2 -0.14,0.31 -0.05,0.1 -0.11,0.22 -0.17,0.33 -0.07,0.12 -0.14,0.24 -0.21,0.36 -0.07,0.11 -0.15,0.24 -0.26,0.36 -0.08,0.1 -0.17,0.19 -0.26,0.28 -0.09,0.08 -0.17,0.14 -0.24,0.19 -0.08,0.05 -0.19,0.11 -0.31,0.16 -0.12,0.05 -0.23,0.06 -0.34,0.02 -0.08,-0.03 -0.16,-0.1 -0.24,-0.21 -0.07,-0.11 -0.13,-0.24 -0.17,-0.4 -0.03,-0.09 -0.05,-0.2 -0.06,-0.34 -0.02,-0.13 -0.03,-0.28 -0.03,-0.44 0,-0.09 0.01,-0.29 0.03,-0.58 0.02,-0.3 0.1,-0.47 0.22,-0.52 0.09,-0.02 0.14,0.02 0.17,0.11 0.03,0.09 0.05,0.25 0.05,0.48 0,0.26 0.04,0.44 0.11,0.55 0.07,0.1 0.14,0.17 0.22,0.21 0.05,0.03 0.11,0.05 0.16,0.04 0.06,0 0.11,0 0.15,-0.01 0.07,-0.02 0.13,-0.05 0.19,-0.1 0.06,-0.05 0.11,-0.09 0.17,-0.14 0.07,-0.06 0.14,-0.14 0.2,-0.23 0.07,-0.09 0.14,-0.18 0.2,-0.28 -0.04,0.03 -0.09,0.05 -0.14,0.06 -0.05,0.02 -0.09,0.02 -0.13,0.02 -0.1,0.04 -0.16,0.06 -0.18,0.06 -0.08,0 -0.16,-0.02 -0.26,-0.06 -0.09,-0.04 -0.17,-0.1 -0.23,-0.18 -0.06,-0.08 -0.11,-0.19 -0.14,-0.32 -0.04,-0.12 -0.05,-0.24 -0.05,-0.35 0,-0.16 0.01,-0.31 0.04,-0.47 0.04,-0.15 0.08,-0.3 0.12,-0.44 0.05,-0.16 0.11,-0.31 0.19,-0.46 0.07,-0.16 0.15,-0.3 0.24,-0.43 0.05,-0.08 0.11,-0.16 0.17,-0.23 0.06,-0.07 0.12,-0.14 0.19,-0.21 0.01,-0.01 0.03,-0.01 0.04,0.01 0.01,0.01 0.03,0.01 0.05,-0.01 0.1,-0.14 0.16,-0.22 0.17,-0.23 0.05,-0.03 0.11,-0.07 0.17,-0.12 0.07,-0.04 0.13,-0.07 0.18,-0.1 0.09,-0.03 0.21,-0.07 0.37,-0.1 0.07,0 0.13,0.01 0.19,0.03 0.07,0.03 0.12,0.05 0.16,0.09 0.05,0.04 0.1,0.11 0.14,0.18 0.04,0.08 0.07,0.17 0.09,0.27zm-0.6 1.22c0.04,-0.13 0.06,-0.24 0.06,-0.34 0,-0.09 -0.01,-0.17 -0.03,-0.22 -0.02,-0.06 -0.05,-0.11 -0.11,-0.17 -0.06,-0.05 -0.16,-0.07 -0.31,-0.04 -0.04,0.01 -0.07,0.03 -0.09,0.07 -0.02,0.03 -0.04,0.06 -0.07,0.08 -0.02,0.01 -0.05,0.03 -0.09,0.05 -0.04,0.03 -0.09,-0.02 -0.14,-0.13 -0.07,0.12 -0.13,0.23 -0.19,0.34 -0.06,0.12 -0.11,0.25 -0.14,0.41 -0.03,0.11 -0.05,0.25 -0.07,0.39 -0.02,0.15 -0.02,0.27 -0.01,0.35 0.01,0.11 0.04,0.19 0.09,0.25 0.04,0.06 0.1,0.08 0.18,0.07 0.14,0 0.28,-0.07 0.39,-0.18 0.12,-0.11 0.22,-0.24 0.3,-0.4 0.06,-0.12 0.11,-0.22 0.14,-0.29 0.02,-0.07 0.05,-0.15 0.09,-0.24zm7.83 1.8c-0.02,0.03 -0.04,0.06 -0.07,0.1 -0.03,0.04 -0.05,0.07 -0.09,0.11 -0.03,0.05 -0.07,0.1 -0.11,0.15 -0.05,0.06 -0.09,0.11 -0.13,0.16 -0.05,0.06 -0.11,0.12 -0.16,0.17 -0.05,0.06 -0.08,0.1 -0.11,0.13 0.04,0.08 0.05,0.18 0.05,0.28 0,0.1 -0.01,0.21 -0.04,0.31 -0.03,0.11 -0.07,0.21 -0.12,0.32 -0.05,0.11 -0.11,0.21 -0.18,0.3 -0.07,0.1 -0.15,0.18 -0.25,0.25 -0.09,0.06 -0.18,0.13 -0.27,0.19 -0.09,0.06 -0.18,0.12 -0.27,0.17 -0.09,0.06 -0.19,0.08 -0.29,0.08 -0.09,0 -0.17,0 -0.24,0 -0.07,0 -0.14,-0.01 -0.19,-0.02 -0.07,-0.03 -0.12,-0.06 -0.16,-0.11 -0.04,-0.05 -0.07,-0.09 -0.08,-0.13 -0.02,-0.05 -0.03,-0.09 -0.03,-0.15 0,-0.06 0.01,-0.11 0.03,-0.17 0.01,-0.03 0.03,-0.06 0.05,-0.1 0.02,-0.03 0.04,-0.06 0.06,-0.09 0.03,-0.03 0.05,-0.06 0.09,-0.1 0.03,-0.04 0.08,-0.08 0.13,-0.13 0.05,-0.04 0.1,-0.09 0.17,-0.15 0.06,-0.06 0.13,-0.13 0.2,-0.2 0.06,-0.06 0.13,-0.13 0.21,-0.21 0.08,-0.07 0.16,-0.15 0.24,-0.24 -0.03,0 -0.07,-0.01 -0.1,-0.03 -0.04,-0.02 -0.08,-0.04 -0.12,-0.07 -0.03,-0.03 -0.07,-0.07 -0.11,-0.11 -0.03,-0.04 -0.06,-0.09 -0.08,-0.15 -0.03,-0.06 -0.05,-0.12 -0.07,-0.19 -0.01,-0.07 -0.03,-0.15 -0.03,-0.24 0,-0.05 0,-0.12 0,-0.19 0,-0.07 0,-0.15 0.01,-0.24 0.01,-0.07 0.02,-0.14 0.03,-0.22 0.02,-0.08 0.03,-0.16 0.04,-0.24 -0.03,0.07 -0.06,0.13 -0.09,0.2 -0.03,0.07 -0.07,0.13 -0.1,0.19 -0.05,0.12 -0.11,0.22 -0.17,0.32 -0.06,0.1 -0.11,0.19 -0.17,0.26 -0.05,0.08 -0.11,0.14 -0.17,0.2 -0.06,0.07 -0.11,0.12 -0.16,0.15 -0.07,0.05 -0.14,0.08 -0.21,0.1 -0.07,0.02 -0.13,0.03 -0.18,0.02 -0.06,-0.02 -0.12,-0.05 -0.17,-0.09 -0.05,-0.05 -0.09,-0.1 -0.13,-0.18 -0.03,-0.04 -0.06,-0.1 -0.08,-0.16 -0.03,-0.07 -0.05,-0.14 -0.07,-0.21 -0.02,-0.09 -0.04,-0.19 -0.06,-0.31 -0.02,-0.11 -0.04,-0.23 -0.05,-0.36 0,-0.06 -0.01,-0.13 -0.01,-0.21 -0.01,-0.08 -0.01,-0.15 -0.01,-0.23 -0.02,0.06 -0.05,0.11 -0.08,0.17 -0.02,0.05 -0.05,0.1 -0.07,0.15 -0.03,0.07 -0.07,0.13 -0.1,0.19 -0.03,0.07 -0.07,0.13 -0.1,0.19 -0.06,0.11 -0.13,0.22 -0.19,0.32 -0.07,0.1 -0.13,0.2 -0.2,0.29 -0.07,0.1 -0.14,0.19 -0.22,0.27 -0.07,0.08 -0.14,0.16 -0.22,0.22 -0.06,0.07 -0.13,0.13 -0.19,0.18 -0.07,0.06 -0.13,0.1 -0.18,0.11 -0.07,0.02 -0.14,0.03 -0.2,0.03 -0.06,-0.01 -0.11,-0.03 -0.15,-0.07 -0.05,-0.04 -0.09,-0.1 -0.13,-0.18 -0.04,-0.08 -0.07,-0.19 -0.09,-0.32 0,-0.06 0,-0.13 -0.01,-0.21 0,-0.08 -0.01,-0.16 -0.01,-0.25 0,-0.06 0.01,-0.13 0.01,-0.2 0.01,-0.07 0.01,-0.15 0.02,-0.23 0,-0.04 0.03,-0.11 0.07,-0.21 0.04,-0.09 0.06,-0.17 0.07,-0.22 0,-0.04 -0.01,-0.05 -0.03,-0.06 -0.03,0 -0.05,-0.02 -0.05,-0.05 -0.01,0.05 -0.03,0.11 -0.06,0.17 -0.03,0.07 -0.06,0.13 -0.09,0.2 -0.03,0.07 -0.08,0.15 -0.13,0.23 -0.05,0.09 -0.09,0.16 -0.14,0.23 -0.05,0.09 -0.1,0.17 -0.15,0.24 -0.04,0.06 -0.08,0.11 -0.11,0.14l-0.2 -0.68c0.03,-0.02 0.06,-0.05 0.09,-0.09 0.04,-0.04 0.07,-0.09 0.11,-0.14 0.05,-0.07 0.1,-0.16 0.15,-0.25 0.05,-0.1 0.11,-0.21 0.18,-0.34 0.02,-0.04 0.06,-0.09 0.09,-0.14 0.04,-0.05 0.08,-0.11 0.11,-0.17 0.04,-0.08 0.09,-0.17 0.13,-0.27 0.04,-0.1 0.09,-0.21 0.14,-0.32 0.02,-0.05 0.06,-0.11 0.09,-0.18 0.04,-0.07 0.07,-0.13 0.1,-0.2 0.03,-0.07 0.06,-0.15 0.09,-0.23 0.03,-0.08 0.06,-0.16 0.1,-0.25 0.02,-0.04 0.04,-0.09 0.06,-0.16 0.02,-0.05 0.04,-0.11 0.06,-0.15 0.01,-0.03 0.04,-0.06 0.07,-0.1 0.03,-0.05 0.07,-0.08 0.11,-0.11 0.04,-0.04 0.09,-0.07 0.14,-0.1 0.06,-0.03 0.11,-0.06 0.15,-0.08 0.04,-0.01 0.1,-0.03 0.15,-0.05 0.06,-0.02 0.1,-0.03 0.11,-0.01 0.03,0.02 0.05,0.04 0.06,0.07 0.01,0.04 0.02,0.09 0.02,0.15 0,0.03 -0.01,0.07 -0.02,0.11 -0.02,0.05 -0.03,0.1 -0.04,0.15 0,0.03 0,0.06 -0.01,0.1 0,0.04 -0.01,0.08 -0.02,0.11 -0.01,0.07 -0.04,0.15 -0.09,0.23 -0.04,0.08 -0.07,0.16 -0.09,0.23 -0.03,0.11 -0.05,0.23 -0.08,0.34 -0.03,0.12 -0.05,0.23 -0.07,0.34 -0.03,0.13 -0.06,0.27 -0.09,0.4 -0.02,0.13 -0.04,0.25 -0.05,0.36 0,0.06 -0.01,0.13 -0.02,0.19 -0.02,0.06 -0.02,0.11 -0.02,0.16 0,0.06 0.01,0.12 0.03,0.16 0.02,0.05 0.03,0.08 0.06,0.09 0.02,0.01 0.05,0.01 0.1,-0.01 0.04,-0.01 0.09,-0.05 0.15,-0.11 0.03,-0.03 0.06,-0.06 0.09,-0.1 0.04,-0.04 0.07,-0.09 0.11,-0.14 0.04,-0.05 0.08,-0.12 0.12,-0.19 0.05,-0.07 0.09,-0.14 0.14,-0.21 0.05,-0.09 0.1,-0.19 0.16,-0.3 0.06,-0.11 0.12,-0.23 0.18,-0.36 0.04,-0.07 0.07,-0.14 0.11,-0.23 0.04,-0.08 0.08,-0.16 0.11,-0.24 0.04,-0.09 0.09,-0.17 0.13,-0.24 0.05,-0.08 0.09,-0.14 0.14,-0.18 0.05,-0.06 0.1,-0.1 0.16,-0.14 0.05,-0.03 0.11,-0.05 0.16,-0.05 0.05,0 0.08,0.03 0.11,0.1 0.02,0.08 0.03,0.17 0.03,0.27 0,0.06 0.01,0.13 0.02,0.22 0.01,0.09 0.01,0.18 0.01,0.26 -0.01,0.06 -0.02,0.12 -0.04,0.18 -0.03,0.07 -0.04,0.13 -0.05,0.18 -0.01,0.11 -0.01,0.22 -0.02,0.35 0,0.12 0,0.24 0,0.35 0,0.16 0.02,0.3 0.05,0.42 0.02,0.12 0.07,0.18 0.12,0.18 0.05,0 0.12,-0.03 0.2,-0.1 0.08,-0.06 0.16,-0.14 0.23,-0.24 0.08,-0.1 0.15,-0.21 0.23,-0.33 0.07,-0.12 0.13,-0.23 0.17,-0.34 0.04,-0.08 0.08,-0.16 0.15,-0.23 0.06,-0.08 0.12,-0.13 0.2,-0.18 0.03,-0.02 0.07,-0.04 0.11,-0.06 0.04,-0.02 0.08,-0.03 0.12,-0.03 0.03,-0.01 0.06,-0.01 0.09,0 0.04,0.01 0.06,0.02 0.09,0.03 0.04,0.03 0.07,0.09 0.09,0.18 0.02,0.09 0.01,0.19 -0.02,0.32 -0.01,0.04 -0.02,0.09 -0.03,0.13 -0.01,0.04 -0.02,0.08 -0.03,0.12 -0.02,0.13 -0.05,0.26 -0.07,0.37 -0.02,0.11 -0.03,0.21 -0.03,0.29 -0.01,0.13 -0.01,0.24 0,0.33 0.02,0.09 0.04,0.17 0.07,0.24 0.02,0.04 0.04,0.07 0.07,0.1 0.03,0.04 0.06,0.07 0.09,0.09 0.02,0.03 0.05,0.05 0.08,0.08 0.03,0.02 0.07,0.04 0.1,0.06 0.04,-0.04 0.08,-0.08 0.12,-0.12 0.04,-0.05 0.08,-0.09 0.12,-0.13 0.04,-0.05 0.09,-0.1 0.13,-0.16 0.04,-0.05 0.09,-0.1 0.13,-0.15 0.04,-0.05 0.08,-0.11 0.12,-0.16 0.04,-0.06 0.08,-0.11 0.11,-0.16l0.22 0.61zm-1.22 1.25c-0.08,0.06 -0.18,0.18 -0.32,0.35 -0.14,0.17 -0.2,0.27 -0.2,0.29 0.01,0.03 0.02,0.06 0.03,0.09 0.01,0.03 0.04,0.02 0.09,-0.03 0.02,-0.02 0.05,-0.05 0.11,-0.1 0.06,-0.04 0.11,-0.09 0.15,-0.15 0.04,-0.06 0.08,-0.14 0.1,-0.22 0.02,-0.08 0.04,-0.16 0.04,-0.23z"/>
    <path class="fil1" d="M87.67 67.85c-0.02,0.05 -0.04,0.08 -0.05,0.1 -0.01,0.02 -0.03,0.06 -0.06,0.11 -0.03,0.03 -0.05,0.05 -0.08,0.08 -0.03,0.03 -0.06,0.07 -0.08,0.1 -0.03,0.04 -0.06,0.08 -0.08,0.12 -0.03,0.05 -0.06,0.09 -0.09,0.11 -0.08,0.08 -0.16,0.15 -0.25,0.2 -0.09,0.06 -0.18,0.11 -0.26,0.15 -0.06,0.02 -0.13,0.05 -0.19,0.06 -0.07,0.02 -0.13,0.03 -0.19,0.03 -0.04,0 -0.08,-0.01 -0.11,-0.02 -0.04,-0.02 -0.07,-0.03 -0.1,-0.05 -0.03,-0.02 -0.06,-0.05 -0.09,-0.08 -0.03,-0.04 -0.05,-0.08 -0.07,-0.11 -0.02,-0.04 -0.04,-0.08 -0.05,-0.14 -0.02,-0.05 -0.03,-0.1 -0.04,-0.16 -0.01,-0.03 -0.01,-0.07 -0.01,-0.11 -0.01,-0.05 -0.01,-0.09 -0.01,-0.14 -0.01,-0.05 -0.01,-0.11 -0.02,-0.17 -0.01,-0.06 -0.01,-0.12 -0.01,-0.18 0,-0.04 0,-0.09 0.01,-0.13 0.01,-0.04 0.02,-0.08 0.02,-0.13 0,-0.07 0.01,-0.14 0.01,-0.21 0.01,-0.08 0.02,-0.15 0.03,-0.22 -0.05,0 -0.09,0.01 -0.14,0.03 -0.05,0.02 -0.1,0.05 -0.14,0.09 -0.04,0.04 -0.08,0.09 -0.11,0.15 -0.04,0.06 -0.07,0.12 -0.11,0.18 -0.05,0.06 -0.09,0.12 -0.15,0.19 -0.05,0.07 -0.1,0.15 -0.14,0.22 -0.04,0.07 -0.07,0.15 -0.1,0.23 -0.03,0.08 -0.07,0.17 -0.11,0.25 -0.03,0.06 -0.06,0.13 -0.08,0.22 -0.03,0.09 -0.06,0.17 -0.09,0.23 -0.03,0.05 -0.06,0.11 -0.1,0.19 -0.04,0.08 -0.08,0.14 -0.11,0.19 -0.02,0.04 -0.07,0.07 -0.13,0.09 -0.06,0.01 -0.11,0.02 -0.14,0.05 -0.05,0.03 -0.09,0.04 -0.12,0.03 -0.04,-0.02 -0.07,-0.04 -0.12,-0.07 -0.03,-0.01 -0.06,-0.04 -0.09,-0.07 -0.03,-0.04 -0.06,-0.07 -0.07,-0.1 -0.03,-0.05 -0.05,-0.1 -0.05,-0.16 0,-0.06 0.01,-0.13 0.02,-0.2 0,-0.04 0.01,-0.1 0.03,-0.16 0.01,-0.06 0.03,-0.12 0.04,-0.17 0.01,-0.08 0.03,-0.17 0.04,-0.25 0.02,-0.08 0.03,-0.17 0.05,-0.25 0.02,-0.09 0.05,-0.19 0.08,-0.29 0.02,-0.09 0.05,-0.19 0.07,-0.27 0.02,-0.1 0.04,-0.19 0.07,-0.29 0.02,-0.09 0.04,-0.17 0.05,-0.25 0.01,-0.09 0.02,-0.17 0.01,-0.23 0,-0.06 -0.01,-0.1 -0.04,-0.12 -0.02,-0.02 -0.05,-0.01 -0.09,0.01 -0.04,0.03 -0.09,0.07 -0.13,0.13 -0.04,0.04 -0.09,0.1 -0.13,0.17 -0.05,0.07 -0.1,0.14 -0.15,0.21 -0.03,0.04 -0.06,0.08 -0.09,0.13 -0.03,0.06 -0.07,0.11 -0.1,0.17 -0.04,0.06 -0.09,0.13 -0.13,0.2 -0.05,0.06 -0.09,0.13 -0.13,0.18 -0.03,0.05 -0.06,0.08 -0.09,0.12 -0.03,0.03 -0.05,0.06 -0.07,0.09l-0.21 -0.64c0.03,-0.03 0.06,-0.07 0.09,-0.12 0.04,-0.04 0.07,-0.09 0.11,-0.14 0.06,-0.08 0.12,-0.18 0.2,-0.3 0.07,-0.12 0.14,-0.23 0.21,-0.35 0.07,-0.12 0.15,-0.24 0.22,-0.36 0.07,-0.12 0.15,-0.23 0.22,-0.34 0.05,-0.08 0.09,-0.16 0.15,-0.24 0.04,-0.07 0.09,-0.15 0.14,-0.23 0.07,-0.11 0.13,-0.21 0.19,-0.31 0.07,-0.1 0.12,-0.17 0.17,-0.23 0.07,-0.07 0.13,-0.13 0.18,-0.17 0.06,-0.04 0.12,-0.06 0.18,-0.06 0.04,0 0.08,0.01 0.13,0.02 0.04,0.02 0.09,0.04 0.14,0.07 0.04,0.03 0.07,0.07 0.09,0.13 0.03,0.05 0.04,0.12 0.05,0.19 0.01,0.08 0.01,0.17 0,0.27 -0.01,0.1 -0.02,0.21 -0.04,0.32 -0.01,0.07 -0.03,0.15 -0.05,0.23 -0.02,0.09 -0.04,0.17 -0.07,0.26 -0.01,0.05 -0.02,0.11 -0.04,0.18 -0.02,0.06 -0.04,0.13 -0.06,0.18 -0.02,0.08 -0.05,0.17 -0.08,0.27 -0.04,0.09 -0.07,0.18 -0.1,0.27 -0.03,0.1 -0.07,0.21 -0.11,0.31 -0.05,0.11 -0.08,0.21 -0.1,0.28 -0.03,0.09 -0.04,0.17 -0.03,0.23 0.01,0.06 0.02,0.09 0.05,0.11 0.02,-0.01 0.04,-0.03 0.05,-0.08 0.01,-0.04 0.03,-0.09 0.06,-0.13 0.03,-0.05 0.05,-0.1 0.07,-0.17 0.02,-0.06 0.04,-0.13 0.07,-0.2 0.04,-0.07 0.07,-0.14 0.12,-0.21 0.05,-0.07 0.09,-0.14 0.13,-0.22 0.03,-0.05 0.07,-0.1 0.11,-0.14 0.05,-0.05 0.09,-0.09 0.12,-0.13 0.04,-0.06 0.09,-0.11 0.15,-0.17 0.06,-0.04 0.12,-0.08 0.18,-0.11 0.04,-0.02 0.08,-0.04 0.12,-0.05 0.04,-0.02 0.09,-0.02 0.13,-0.03 0.01,-0.06 0.02,-0.11 0.03,-0.16 0.01,-0.06 0.02,-0.11 0.03,-0.16 0.02,-0.06 0.03,-0.11 0.05,-0.17 0.02,-0.05 0.03,-0.1 0.05,-0.14 0.01,-0.06 0.02,-0.12 0.03,-0.18 0.01,-0.06 0.02,-0.11 0.03,-0.16 0.01,-0.06 0.02,-0.11 0.04,-0.17 0.01,-0.06 0.02,-0.12 0.03,-0.17 0.02,-0.08 0.08,-0.15 0.17,-0.21 0.09,-0.07 0.18,-0.11 0.28,-0.15 0.07,-0.03 0.17,-0.03 0.28,-0.02 0.1,0.02 0.15,0.04 0.14,0.08 -0.01,0.05 -0.02,0.1 -0.04,0.15 -0.02,0.06 -0.03,0.12 -0.04,0.18 -0.03,0.13 -0.07,0.27 -0.11,0.43 -0.03,0.15 -0.07,0.3 -0.1,0.44 -0.01,0.07 -0.03,0.14 -0.04,0.22 -0.02,0.07 -0.03,0.13 -0.04,0.19 0.02,0 0.06,0.01 0.14,0.04 0.03,0.04 0.04,0.1 0.02,0.18 -0.01,0.07 -0.04,0.14 -0.07,0.2 -0.02,0.17 -0.05,0.27 -0.06,0.29 -0.02,0.02 -0.08,0.04 -0.17,0.06 -0.01,0.06 -0.02,0.11 -0.02,0.14 -0.01,0.04 -0.02,0.09 -0.02,0.15 -0.01,0.07 -0.02,0.12 -0.02,0.17 0,0.04 0,0.09 0,0.14 0,0.12 0,0.22 0.01,0.3 0.02,0.09 0.04,0.13 0.08,0.14 0.03,0.01 0.06,0 0.1,-0.01 0.03,-0.01 0.07,-0.03 0.11,-0.06 0.04,-0.02 0.08,-0.06 0.12,-0.1 0.04,-0.04 0.08,-0.08 0.12,-0.12 0.03,-0.04 0.07,-0.09 0.11,-0.14 0.04,-0.05 0.07,-0.1 0.1,-0.15 0.02,-0.04 0.04,-0.06 0.04,-0.07 0.01,-0.01 0.02,-0.04 0.03,-0.07l0.21 0.64zm-0.22 -0.64c0.02,-0.04 0.05,-0.08 0.07,-0.13 0.03,-0.06 0.06,-0.12 0.09,-0.18l0.4 -0.37c0.05,-0.08 0.12,-0.18 0.22,-0.3 0.1,-0.13 0.22,-0.28 0.37,-0.45 0.02,-0.06 0.05,-0.12 0.09,-0.18 0.03,-0.07 0.08,-0.14 0.14,-0.21 0.04,-0.06 0.09,-0.11 0.14,-0.17 0.05,-0.05 0.09,-0.1 0.13,-0.15 0.05,-0.08 0.1,-0.15 0.15,-0.22 0.04,-0.07 0.09,-0.14 0.14,-0.2 0.05,-0.07 0.11,-0.12 0.17,-0.16 0.06,-0.03 0.12,-0.05 0.19,-0.05 0.07,0 0.13,0.01 0.17,0.04 0.04,0.02 0.06,0.06 0.06,0.1 -0.03,0.11 -0.07,0.22 -0.1,0.33l0.03 0.06c0.15,-0.08 0.26,-0.14 0.35,-0.17 0.08,-0.04 0.14,-0.06 0.16,-0.06 0.25,0 0.44,0.1 0.56,0.31 0.13,0.21 0.19,0.53 0.19,0.95 0,0.08 -0.01,0.18 -0.02,0.28 -0.01,0.11 -0.04,0.23 -0.07,0.35 -0.03,0.15 -0.07,0.26 -0.11,0.35 -0.04,0.1 -0.07,0.17 -0.11,0.21 0.02,0.05 0.03,0.09 0.05,0.12 0.02,0.02 0.04,0.04 0.07,0.04 0.02,0 0.05,-0.01 0.08,-0.04 0.03,-0.02 0.06,-0.06 0.11,-0.1 0.03,0.1 0.06,0.21 0.09,0.32 0.04,0.11 0.07,0.22 0.1,0.32 -0.06,0.08 -0.12,0.15 -0.17,0.23 -0.06,0.07 -0.12,0.14 -0.19,0.2 -0.08,0.09 -0.15,0.16 -0.22,0.19 -0.07,0.05 -0.14,0.06 -0.21,0.06 -0.08,0 -0.14,-0.02 -0.19,-0.07 -0.05,-0.06 -0.09,-0.13 -0.13,-0.22 -0.08,0.15 -0.19,0.3 -0.31,0.43 -0.12,0.13 -0.25,0.23 -0.4,0.32 -0.08,0.06 -0.16,0.1 -0.23,0.13 -0.07,0.03 -0.13,0.05 -0.19,0.05 -0.02,0 -0.05,0.01 -0.1,0.03 -0.05,0.01 -0.09,0.02 -0.12,0.02 -0.2,0 -0.37,-0.11 -0.53,-0.34 -0.16,-0.22 -0.24,-0.48 -0.24,-0.76 0,-0.11 0.02,-0.26 0.06,-0.45 0.04,-0.18 0.06,-0.29 0.06,-0.32 0,-0.04 -0.01,-0.06 -0.03,-0.08 -0.01,-0.02 -0.03,-0.04 -0.06,-0.04 -0.02,0 -0.06,0.04 -0.12,0.11 -0.07,0.07 -0.16,0.17 -0.28,0.3 -0.01,0.02 -0.02,0.05 -0.03,0.09 -0.02,0.04 -0.04,0.08 -0.07,0.12 -0.03,-0.1 -0.06,-0.21 -0.1,-0.32 -0.03,-0.11 -0.07,-0.22 -0.11,-0.32zm2.47 -1.28c-0.02,0.01 -0.05,0.03 -0.08,0.07 -0.03,0.05 -0.06,0.1 -0.09,0.17 -0.05,0.11 -0.11,0.22 -0.17,0.35 -0.04,0.06 -0.07,0.1 -0.12,0.13 -0.04,0.03 -0.09,0.05 -0.14,0.07 -0.04,0 -0.07,0.05 -0.11,0.14 -0.04,0.08 -0.07,0.21 -0.11,0.37 -0.04,0.15 -0.07,0.27 -0.09,0.37 -0.01,0.11 -0.02,0.19 -0.02,0.27 0,0.13 0.02,0.22 0.07,0.29 0.05,0.07 0.12,0.1 0.22,0.1 0.16,0 0.3,-0.06 0.43,-0.18 0.14,-0.12 0.26,-0.3 0.38,-0.54 0.05,-0.09 0.1,-0.17 0.15,-0.25 0.03,-0.03 0.05,-0.07 0.06,-0.14 0.02,-0.06 0.04,-0.14 0.06,-0.23l0.09 -0.41c-0.03,-0.14 -0.06,-0.25 -0.09,-0.33 -0.03,-0.08 -0.05,-0.13 -0.08,-0.15 -0.02,-0.02 -0.05,-0.03 -0.11,-0.05 -0.06,-0.01 -0.15,-0.03 -0.25,-0.05zm1.23 1.28c0.05,-0.1 0.1,-0.2 0.17,-0.3 0.06,-0.1 0.14,-0.2 0.24,-0.3 0.01,-0.1 0.03,-0.19 0.04,-0.28 0,-0.09 0.01,-0.19 0.01,-0.28 0.02,-0.07 0.03,-0.14 0.05,-0.23 0.03,-0.09 0.05,-0.19 0.08,-0.29 0.03,-0.1 0.07,-0.23 0.12,-0.39 0.06,-0.15 0.13,-0.33 0.21,-0.52 0.07,-0.11 0.15,-0.22 0.23,-0.35 0.07,-0.13 0.15,-0.26 0.23,-0.39 0.04,-0.05 0.08,-0.09 0.12,-0.12 0.05,-0.04 0.09,-0.08 0.14,-0.13 0.04,-0.02 0.08,-0.03 0.14,-0.05 0.05,-0.01 0.1,-0.02 0.16,-0.02 0.09,0 0.16,0.01 0.21,0.04 0.05,0.02 0.1,0.06 0.13,0.11 0.03,0.04 0.05,0.1 0.07,0.17 0.02,0.08 0.04,0.17 0.07,0.28 0,0.09 0.02,0.19 0.03,0.31 0,-0.03 0,-0.02 -0.02,0.03 -0.01,0.05 -0.03,0.14 -0.05,0.25l-0.05 0.22c-0.05,0.23 -0.15,0.49 -0.32,0.78 -0.17,0.3 -0.39,0.64 -0.68,1.02 -0.02,0.03 -0.04,0.07 -0.06,0.12 -0.01,0.05 -0.02,0.1 -0.02,0.16 0,0.1 0.01,0.18 0.04,0.26 0.02,0.07 0.06,0.13 0.11,0.17 0.03,0.02 0.07,0.05 0.13,0.08 0.06,0.03 0.13,0.05 0.21,0.08 0.14,-0.02 0.26,-0.05 0.37,-0.09 0.11,-0.05 0.21,-0.11 0.29,-0.18 0.02,-0.01 0.05,-0.03 0.08,-0.06 0.04,-0.02 0.08,-0.06 0.12,-0.1 0.04,0.13 0.08,0.26 0.11,0.36 0.04,0.11 0.07,0.21 0.09,0.28 -0.2,0.27 -0.38,0.47 -0.53,0.61 -0.16,0.13 -0.31,0.2 -0.44,0.2 -0.06,0.05 -0.12,0.08 -0.19,0.1 -0.07,0.02 -0.15,0.03 -0.25,0.03 -0.13,0 -0.24,-0.02 -0.34,-0.08 -0.09,-0.05 -0.17,-0.12 -0.24,-0.22 -0.03,-0.05 -0.07,-0.12 -0.1,-0.21 -0.04,-0.1 -0.07,-0.2 -0.11,-0.33 -0.03,-0.11 -0.06,-0.18 -0.09,-0.23 -0.02,-0.05 -0.06,-0.08 -0.09,-0.08 -0.03,0 -0.06,0.02 -0.09,0.06 -0.04,0.03 -0.07,0.08 -0.12,0.15 -0.01,-0.07 -0.03,-0.15 -0.07,-0.26 -0.03,-0.1 -0.08,-0.23 -0.14,-0.38zm1.64 -2.28c-0.07,0 -0.17,0.13 -0.3,0.4 -0.13,0.28 -0.19,0.48 -0.19,0.6 0,0.03 0,0.05 0.01,0.06 0.01,0.01 0.03,0.02 0.06,0.02 0.03,0 0.07,-0.03 0.09,-0.08 0.02,-0.05 0.05,-0.11 0.07,-0.15 0.03,-0.05 0.07,-0.1 0.11,-0.15 0.03,-0.06 0.07,-0.11 0.1,-0.17 0.04,-0.06 0.08,-0.13 0.09,-0.19 0.03,-0.07 0.04,-0.13 0.04,-0.2 0,-0.04 -0.01,-0.08 -0.02,-0.1 -0.01,-0.03 -0.03,-0.04 -0.06,-0.04zm3.57 2.28c0.08,-0.12 0.2,-0.25 0.36,-0.41 0.16,-0.16 0.29,-0.29 0.37,-0.4 0.05,-0.08 0.11,-0.18 0.2,-0.3 0.08,-0.12 0.17,-0.26 0.29,-0.43 0.06,-0.08 0.13,-0.15 0.2,-0.2 0.06,-0.04 0.12,-0.07 0.19,-0.07 0.08,0 0.14,0.03 0.19,0.09 0.05,0.06 0.07,0.14 0.07,0.26 0,0.19 -0.05,0.49 -0.15,0.89 -0.11,0.41 -0.16,0.72 -0.16,0.93 0,0.05 0.01,0.08 0.03,0.1 0.01,0.02 0.03,0.03 0.05,0.03l0.03 -0.01c0.06,-0.06 0.14,-0.13 0.22,-0.21 0.09,-0.09 0.19,-0.2 0.3,-0.32 0.09,-0.12 0.2,-0.26 0.33,-0.45 0.13,-0.18 0.28,-0.39 0.46,-0.63 0.07,-0.08 0.15,-0.17 0.24,-0.29 0.08,-0.12 0.18,-0.26 0.29,-0.42 0.04,-0.09 0.11,-0.15 0.19,-0.2 0.08,-0.04 0.18,-0.07 0.29,-0.07 0.08,0 0.14,0.02 0.18,0.06 0.04,0.04 0.06,0.1 0.06,0.18 0,0.03 -0.01,0.06 -0.01,0.1 -0.01,0.03 -0.01,0.06 -0.01,0.08 -0.03,0.14 -0.06,0.32 -0.11,0.52 -0.05,0.21 -0.11,0.45 -0.17,0.72 -0.06,0.18 -0.12,0.38 -0.19,0.63 -0.06,0.24 -0.13,0.5 -0.2,0.79l0.04 0.07c0.07,-0.05 0.18,-0.16 0.32,-0.34 0.14,-0.17 0.31,-0.41 0.53,-0.7l0.21 0.64c-0.03,0.04 -0.06,0.09 -0.1,0.14 -0.04,0.06 -0.09,0.11 -0.16,0.17 -0.36,0.36 -0.68,0.72 -0.94,1.07 -0.26,0.35 -0.46,0.69 -0.62,1.04 -0.23,0.51 -0.42,0.94 -0.57,1.26 -0.15,0.32 -0.26,0.55 -0.33,0.68 -0.23,0.43 -0.46,0.75 -0.67,0.96 -0.21,0.2 -0.42,0.31 -0.62,0.31 -0.07,0 -0.13,-0.03 -0.16,-0.07 -0.03,-0.04 -0.05,-0.1 -0.05,-0.2 0,-0.04 0.01,-0.1 0.02,-0.17 0.02,-0.07 0.05,-0.15 0.09,-0.23 0.07,-0.12 0.13,-0.26 0.18,-0.39l0.16 -0.19c0.01,-0.06 0.02,-0.1 0.02,-0.12 0.01,-0.02 0.03,-0.05 0.05,-0.09 0.03,-0.03 0.06,-0.07 0.09,-0.11 0.03,-0.08 0.09,-0.22 0.19,-0.42 0.11,-0.19 0.25,-0.44 0.44,-0.75 0.14,-0.23 0.27,-0.43 0.39,-0.6 0.11,-0.18 0.21,-0.33 0.29,-0.45 0.02,-0.04 0.03,-0.08 0.05,-0.13 0.01,-0.06 0.03,-0.11 0.04,-0.16 0.04,-0.12 0.09,-0.27 0.14,-0.44 0.06,-0.18 0.12,-0.38 0.19,-0.62 0.04,-0.13 0.07,-0.29 0.09,-0.47 0.03,-0.17 0.05,-0.37 0.07,-0.57 -0.01,-0.02 -0.01,-0.05 -0.01,-0.08 -0.01,-0.03 -0.01,-0.07 -0.03,-0.13 -0.06,0.04 -0.13,0.11 -0.2,0.19 -0.07,0.09 -0.15,0.19 -0.24,0.3 -0.11,0.2 -0.23,0.37 -0.34,0.5 -0.12,0.14 -0.23,0.24 -0.35,0.31 -0.07,0.2 -0.17,0.35 -0.28,0.44 -0.12,0.1 -0.26,0.15 -0.41,0.15 -0.11,0 -0.2,-0.04 -0.26,-0.11 -0.06,-0.07 -0.08,-0.18 -0.08,-0.33 0,-0.03 0,-0.07 0,-0.11 0.01,-0.04 0.02,-0.09 0.02,-0.15 -0.01,-0.04 -0.02,-0.11 -0.05,-0.19 0.02,-0.08 0.03,-0.17 0.04,-0.27 0,-0.14 -0.01,-0.25 -0.02,-0.32 -0.02,-0.07 -0.04,-0.1 -0.08,-0.1l-0.02 0.01c-0.03,0.04 -0.09,0.1 -0.16,0.17 -0.07,0.08 -0.15,0.17 -0.24,0.27 -0.02,-0.06 -0.04,-0.13 -0.07,-0.21 -0.02,-0.09 -0.05,-0.19 -0.08,-0.3 -0.01,-0.03 -0.01,-0.05 -0.03,-0.08 -0.01,-0.02 -0.02,-0.04 -0.03,-0.05zm4.43 0c0.01,-0.04 0.03,-0.07 0.05,-0.11 0.02,-0.04 0.05,-0.09 0.08,-0.15 0.03,-0.03 0.08,-0.09 0.13,-0.16 0.06,-0.07 0.12,-0.15 0.19,-0.24 0.06,-0.1 0.14,-0.21 0.22,-0.35 0.09,-0.14 0.2,-0.3 0.33,-0.5 0.05,-0.08 0.12,-0.18 0.2,-0.3 0.09,-0.13 0.18,-0.28 0.3,-0.45 0.09,-0.15 0.19,-0.27 0.3,-0.34 0.11,-0.08 0.23,-0.11 0.35,-0.11 0.13,0 0.22,0.05 0.27,0.15 0.06,0.11 0.09,0.26 0.09,0.46 0,0.11 -0.03,0.32 -0.09,0.62 -0.05,0.31 -0.14,0.71 -0.27,1.21 -0.03,0.09 -0.06,0.18 -0.08,0.27 -0.03,0.06 -0.04,0.11 -0.05,0.16 0,0.05 -0.01,0.08 -0.01,0.1 0,0.03 0.02,0.07 0.04,0.11 0.02,-0.02 0.03,-0.03 0.05,-0.06 0.01,-0.02 0.03,-0.05 0.05,-0.08 0.03,-0.07 0.07,-0.15 0.13,-0.22 0.06,-0.08 0.12,-0.17 0.2,-0.26 0.03,-0.08 0.07,-0.16 0.12,-0.24 0.05,-0.07 0.11,-0.15 0.17,-0.21 0.01,-0.02 0.03,-0.05 0.05,-0.09 0.02,-0.05 0.05,-0.09 0.08,-0.14 0.04,-0.06 0.1,-0.12 0.16,-0.19 0.06,-0.06 0.13,-0.13 0.21,-0.2 0.1,-0.07 0.18,-0.12 0.25,-0.16 0.08,-0.03 0.14,-0.05 0.2,-0.05 0.1,0 0.19,0.03 0.28,0.1 0.08,0.07 0.15,0.18 0.21,0.33 0.07,0.29 0.13,0.56 0.19,0.81 0.04,0.15 0.08,0.25 0.13,0.32 0.04,0.07 0.1,0.11 0.15,0.11 0.05,0 0.09,-0.01 0.12,-0.04 0.04,-0.02 0.07,-0.06 0.1,-0.1l0.21 0.64c-0.06,0.07 -0.12,0.14 -0.18,0.21 -0.06,0.07 -0.12,0.14 -0.18,0.2 -0.08,0.1 -0.15,0.17 -0.22,0.21 -0.07,0.04 -0.14,0.06 -0.21,0.06 -0.07,0 -0.15,-0.02 -0.22,-0.07 -0.07,-0.05 -0.13,-0.12 -0.19,-0.21 -0.02,-0.03 -0.06,-0.1 -0.1,-0.21 -0.04,-0.1 -0.09,-0.22 -0.14,-0.37 -0.05,-0.06 -0.1,-0.14 -0.15,-0.24 -0.06,-0.1 -0.12,-0.22 -0.2,-0.36l-0.05 -0.02c-0.06,0.03 -0.13,0.07 -0.19,0.13 -0.06,0.05 -0.13,0.13 -0.2,0.22 -0.15,0.18 -0.27,0.3 -0.33,0.35 -0.07,0.04 -0.12,0.1 -0.14,0.16 -0.05,0.11 -0.13,0.26 -0.25,0.43 -0.11,0.18 -0.26,0.39 -0.43,0.64 -0.05,0.06 -0.09,0.12 -0.14,0.18 -0.04,0.05 -0.08,0.11 -0.13,0.17 -0.04,0.05 -0.09,0.09 -0.15,0.11 -0.05,0.02 -0.12,0.03 -0.19,0.03 -0.13,0 -0.21,-0.07 -0.22,-0.2 -0.01,-0.13 -0.02,-0.26 -0.03,-0.39 0.05,-0.19 0.11,-0.44 0.17,-0.74 0.07,-0.29 0.14,-0.64 0.23,-1.03 0,-0.02 0,-0.06 0.02,-0.1 0.01,-0.04 0.02,-0.09 0.04,-0.15 0.01,-0.06 0.03,-0.12 0.03,-0.16 0.01,-0.05 0.01,-0.09 0.01,-0.12 0,-0.03 0,-0.06 -0.02,-0.08 -0.02,-0.01 -0.05,-0.02 -0.08,-0.02 -0.04,0 -0.08,0.02 -0.14,0.08 -0.06,0.05 -0.12,0.14 -0.2,0.27 -0.1,0.14 -0.17,0.25 -0.23,0.33 -0.06,0.08 -0.1,0.13 -0.12,0.14 -0.03,0.03 -0.07,0.08 -0.12,0.14 -0.05,0.06 -0.1,0.13 -0.16,0.2 0,0.02 -0.01,0.05 -0.03,0.09 -0.01,0.04 -0.03,0.08 -0.06,0.12 -0.02,-0.07 -0.04,-0.15 -0.08,-0.26 -0.03,-0.1 -0.08,-0.23 -0.13,-0.38zm4.9 0c0.06,-0.13 0.15,-0.27 0.26,-0.44 0.11,-0.17 0.24,-0.37 0.4,-0.59 0.01,-0.04 0.02,-0.09 0.04,-0.15 0.02,-0.06 0.04,-0.13 0.07,-0.22 0.19,-0.37 0.35,-0.73 0.49,-1.07 0.14,-0.34 0.27,-0.67 0.37,-0.99 0.03,-0.08 0.06,-0.18 0.1,-0.3 0.04,-0.12 0.08,-0.26 0.13,-0.41 0.05,-0.11 0.1,-0.19 0.15,-0.25 0.04,-0.06 0.09,-0.1 0.13,-0.1 0.07,0 0.12,0.05 0.15,0.12 0.04,0.08 0.05,0.21 0.05,0.38 0,0.09 -0.06,0.39 -0.17,0.91 -0.12,0.51 -0.3,1.23 -0.53,2.17 -0.06,0.22 -0.13,0.53 -0.2,0.94 -0.08,0.41 -0.17,0.91 -0.27,1.52 -0.01,0.09 -0.02,0.19 -0.03,0.31 -0.01,0.11 -0.03,0.25 -0.05,0.4 -0.06,0.3 -0.1,0.54 -0.13,0.72 -0.02,0.18 -0.03,0.29 -0.03,0.34l0.02 0.06c0.02,-0.01 0.04,-0.06 0.06,-0.13 0.03,-0.08 0.04,-0.18 0.06,-0.33 0.02,-0.12 0.04,-0.23 0.05,-0.32 0.01,-0.08 0.01,-0.15 0,-0.21 0.08,-0.27 0.17,-0.62 0.27,-1.05 0.1,-0.42 0.22,-0.92 0.36,-1.48 0.05,-0.13 0.11,-0.3 0.18,-0.49 0.07,-0.2 0.15,-0.43 0.23,-0.7 0.08,-0.1 0.15,-0.18 0.21,-0.23 0.06,-0.05 0.12,-0.07 0.16,-0.07 0.1,0 0.19,0.03 0.27,0.1 0.08,0.07 0.15,0.18 0.22,0.31 0.02,0.04 0.05,0.12 0.09,0.25 0.05,0.14 0.11,0.32 0.19,0.55 0.04,0.14 0.09,0.25 0.14,0.32 0.05,0.08 0.09,0.12 0.14,0.13l0.22 0.64c-0.02,0.01 -0.07,0.03 -0.14,0.06 -0.07,0.02 -0.18,0.05 -0.32,0.09l-0.34 -0.18c-0.09,-0.03 -0.19,-0.15 -0.31,-0.34 -0.12,-0.2 -0.22,-0.31 -0.3,-0.35 -0.07,0.07 -0.15,0.21 -0.23,0.42 -0.08,0.2 -0.16,0.47 -0.25,0.8 -0.02,0.08 -0.05,0.16 -0.08,0.24 -0.03,0.09 -0.06,0.19 -0.1,0.3 -0.02,0.18 -0.04,0.35 -0.07,0.52 -0.04,0.14 -0.09,0.32 -0.14,0.53 -0.05,0.22 -0.11,0.48 -0.17,0.78 -0.01,0.11 -0.06,0.26 -0.13,0.47 -0.07,0.21 -0.11,0.36 -0.12,0.47 -0.01,0.06 -0.02,0.15 -0.05,0.26 -0.02,0.11 -0.05,0.24 -0.1,0.38 -0.07,0.19 -0.15,0.33 -0.21,0.43 -0.07,0.09 -0.12,0.14 -0.16,0.14 -0.11,0 -0.18,-0.07 -0.24,-0.2 -0.05,-0.14 -0.07,-0.34 -0.07,-0.61 0,-0.4 0.01,-0.85 0.05,-1.33 0.03,-0.48 0.08,-1 0.15,-1.56 0.02,-0.16 0.05,-0.32 0.07,-0.48 0.02,-0.17 0.05,-0.34 0.07,-0.5 0.03,-0.2 0.05,-0.38 0.07,-0.55 0.01,-0.16 0.01,-0.31 0,-0.44 -0.03,0.01 -0.09,0.07 -0.17,0.18 -0.08,0.1 -0.18,0.26 -0.3,0.47 -0.02,-0.07 -0.04,-0.15 -0.08,-0.26 -0.03,-0.1 -0.08,-0.23 -0.13,-0.38z"/>
    <path class="fil1" d="M109.44 66.9l0.46 -0.42c0.02,-0.02 0.04,-0.05 0.07,-0.09 0.02,-0.04 0.05,-0.1 0.08,-0.17 0.02,-0.07 0.05,-0.12 0.09,-0.16 0.04,-0.04 0.09,-0.08 0.14,-0.11 0.03,-0.05 0.07,-0.11 0.12,-0.18 0.05,-0.07 0.11,-0.15 0.19,-0.24 0.04,-0.03 0.09,-0.07 0.14,-0.13 0.06,-0.05 0.12,-0.12 0.19,-0.21 0.31,-0.41 0.59,-0.71 0.82,-0.91 0.23,-0.2 0.43,-0.3 0.59,-0.3 0.09,0 0.16,0.02 0.2,0.07 0.04,0.06 0.06,0.13 0.06,0.22 0,0.1 -0.01,0.19 -0.04,0.26 -0.02,0.08 -0.06,0.14 -0.12,0.19 -0.08,0.09 -0.17,0.18 -0.27,0.29 -0.06,0.09 -0.12,0.2 -0.2,0.31 -0.08,0.11 -0.17,0.22 -0.28,0.32 -0.03,0.07 -0.06,0.12 -0.09,0.17 -0.01,0.02 -0.05,0.06 -0.09,0.12 -0.05,0.07 -0.11,0.13 -0.19,0.21 -0.04,0.11 -0.11,0.24 -0.23,0.41 -0.11,0.16 -0.26,0.36 -0.45,0.59 -0.03,0.03 -0.07,0.1 -0.13,0.22 -0.06,0.12 -0.14,0.27 -0.24,0.47l0.03 0.06c0.08,-0.03 0.16,-0.09 0.24,-0.17 0.08,-0.08 0.17,-0.18 0.27,-0.31 0.12,-0.15 0.21,-0.27 0.29,-0.36 0.07,-0.09 0.12,-0.15 0.15,-0.18 0.03,-0.02 0.05,-0.04 0.07,-0.06 0.03,-0.01 0.06,-0.04 0.09,-0.07 0.15,-0.25 0.3,-0.45 0.43,-0.57 0.14,-0.12 0.27,-0.19 0.38,-0.19 0.08,0 0.13,0.04 0.17,0.12 0.04,0.08 0.06,0.19 0.06,0.35 0,0.23 -0.01,0.46 -0.01,0.67 0,0.15 0.03,0.29 0.09,0.41 0.06,0.12 0.15,0.18 0.25,0.18 0.03,0 0.06,-0.01 0.09,-0.04 0.03,-0.02 0.06,-0.05 0.09,-0.09 0.02,-0.04 0.04,-0.09 0.07,-0.12 0.02,-0.04 0.04,-0.08 0.06,-0.12 0.02,-0.01 0.04,-0.02 0.06,-0.05 0.03,-0.02 0.05,-0.05 0.08,-0.08 0.05,0.14 0.09,0.26 0.12,0.37 0.03,0.1 0.06,0.2 0.08,0.27 -0.08,0.1 -0.16,0.21 -0.24,0.31 -0.07,0.11 -0.15,0.21 -0.24,0.3 -0.1,0.11 -0.2,0.19 -0.3,0.25 -0.09,0.06 -0.19,0.08 -0.28,0.08 -0.22,0 -0.4,-0.08 -0.52,-0.26 -0.11,-0.17 -0.18,-0.44 -0.21,-0.79 0,-0.04 0,-0.08 -0.01,-0.13 -0.01,-0.04 -0.03,-0.09 -0.05,-0.13 -0.02,0.02 -0.04,0.04 -0.06,0.07 -0.02,0.03 -0.04,0.06 -0.07,0.1 -0.04,0.05 -0.1,0.11 -0.17,0.18 -0.06,0.07 -0.14,0.15 -0.23,0.25 -0.12,0.17 -0.22,0.31 -0.3,0.42 -0.08,0.1 -0.14,0.18 -0.18,0.23 -0.07,0.08 -0.15,0.16 -0.24,0.24 -0.09,0.08 -0.19,0.16 -0.3,0.24 -0.07,0.06 -0.13,0.1 -0.19,0.13 -0.05,0.03 -0.09,0.04 -0.11,0.04 -0.16,0 -0.29,-0.05 -0.36,-0.16 -0.08,-0.11 -0.12,-0.28 -0.12,-0.52 0,-0.12 0.02,-0.24 0.06,-0.36 0.04,-0.12 0.1,-0.23 0.18,-0.34 0.01,-0.06 0.01,-0.11 0.01,-0.15 0,-0.02 0,-0.04 -0.01,-0.07 -0.01,-0.02 -0.02,-0.05 -0.04,-0.08 -0.02,-0.07 -0.04,-0.15 -0.07,-0.23 -0.02,-0.08 -0.05,-0.17 -0.08,-0.26 0.01,-0.02 0.03,-0.06 0.06,-0.11 0.02,-0.05 0.05,-0.12 0.09,-0.2zm3.77 0.31c0.04,-0.07 0.09,-0.15 0.15,-0.24 0.06,-0.09 0.13,-0.2 0.23,-0.33 0.03,-0.13 0.06,-0.29 0.09,-0.49 0.03,-0.19 0.05,-0.42 0.07,-0.69 0.03,-0.26 0.05,-0.5 0.08,-0.7 0.03,-0.2 0.06,-0.36 0.08,-0.48 0.16,-0.66 0.28,-1.17 0.36,-1.54 0.09,-0.36 0.14,-0.58 0.15,-0.64 0.11,-0.43 0.23,-0.81 0.36,-1.15 0.12,-0.33 0.24,-0.62 0.37,-0.87 0.03,-0.05 0.06,-0.1 0.1,-0.16 0.03,-0.05 0.07,-0.11 0.11,-0.17 0.13,-0.08 0.25,-0.15 0.36,-0.23 0.06,-0.04 0.12,-0.07 0.19,-0.09 0.06,-0.02 0.12,-0.04 0.18,-0.04 0.1,0 0.17,0.07 0.22,0.19 0.05,0.12 0.08,0.31 0.08,0.56 0,0.15 -0.02,0.33 -0.05,0.52 -0.03,0.19 -0.07,0.4 -0.12,0.62 -0.09,0.32 -0.15,0.58 -0.19,0.77 -0.05,0.19 -0.08,0.3 -0.09,0.35 -0.01,0.1 -0.04,0.22 -0.09,0.37 -0.05,0.15 -0.12,0.34 -0.21,0.55 -0.1,0.28 -0.19,0.49 -0.25,0.64 -0.06,0.15 -0.09,0.24 -0.1,0.27 -0.02,0.04 -0.05,0.07 -0.08,0.1 -0.02,0.04 -0.05,0.07 -0.07,0.11l0 0.16c-0.02,0.06 -0.04,0.1 -0.06,0.12 -0.05,0.16 -0.13,0.35 -0.23,0.58 -0.1,0.23 -0.22,0.5 -0.36,0.79 -0.08,0.16 -0.14,0.29 -0.18,0.41 -0.04,0.12 -0.06,0.22 -0.06,0.3l0 0.62c0.01,0.12 0.03,0.24 0.05,0.36 0.02,0.13 0.04,0.24 0.06,0.35 0.02,0.15 0.05,0.27 0.1,0.34 0.05,0.08 0.1,0.12 0.16,0.12 0.14,0 0.25,-0.05 0.34,-0.14 0.1,-0.09 0.16,-0.23 0.21,-0.42 -0.1,-0.05 -0.17,-0.11 -0.22,-0.18 -0.05,-0.06 -0.07,-0.13 -0.07,-0.21 0.02,-0.05 0.03,-0.1 0.04,-0.16 0.01,-0.05 0.03,-0.11 0.04,-0.17 0,-0.03 0.01,-0.07 0.02,-0.1 0.01,-0.03 0.01,-0.07 0.02,-0.13 0.15,-0.39 0.3,-0.69 0.42,-0.89 0.13,-0.19 0.25,-0.3 0.35,-0.3 0.03,0 0.07,0.01 0.12,0.02 0.05,0.01 0.09,0.02 0.12,0.02 0.02,0 0.05,-0.01 0.1,-0.03 0.04,-0.01 0.08,-0.02 0.09,-0.02 0.06,0 0.1,0.03 0.13,0.08 0.02,0.05 0.03,0.13 0.03,0.22 0,0.2 -0.04,0.42 -0.12,0.65 -0.09,0.23 -0.13,0.36 -0.13,0.4 0,0.03 0.01,0.06 0.04,0.09 0.02,-0.01 0.04,-0.03 0.06,-0.04 0.02,-0.02 0.05,-0.05 0.07,-0.07 0.01,0.06 0.03,0.13 0.06,0.21 0.03,0.08 0.06,0.17 0.1,0.27 0.02,0.04 0.03,0.06 0.04,0.09 0,0.03 0.01,0.05 0.01,0.07 -0.15,0.21 -0.27,0.36 -0.38,0.47 -0.11,0.11 -0.2,0.17 -0.28,0.18 -0.02,0 -0.05,0 -0.09,0 -0.03,-0.01 -0.07,-0.01 -0.12,-0.02 -0.05,0.09 -0.1,0.18 -0.17,0.28 -0.07,0.1 -0.14,0.23 -0.22,0.37 -0.04,0.03 -0.08,0.07 -0.13,0.13 -0.05,0.06 -0.11,0.12 -0.17,0.2 -0.1,0.14 -0.2,0.24 -0.3,0.3 -0.1,0.07 -0.19,0.1 -0.29,0.1 -0.05,0 -0.09,-0.01 -0.13,-0.03 -0.05,-0.01 -0.09,-0.04 -0.15,-0.09 -0.04,-0.03 -0.08,-0.07 -0.13,-0.12 -0.05,-0.05 -0.1,-0.11 -0.15,-0.17 -0.07,-0.29 -0.12,-0.56 -0.15,-0.8 -0.03,-0.25 -0.04,-0.48 -0.04,-0.7 0,-0.04 -0.01,-0.07 -0.01,-0.1 -0.01,-0.02 -0.02,-0.05 -0.03,-0.07l-0.04 -0.02 -0.04 0.02 -0.05 0.07c-0.03,-0.1 -0.06,-0.2 -0.09,-0.31 -0.04,-0.11 -0.08,-0.22 -0.12,-0.33zm2.38 -5.72c0,-0.02 -0.01,-0.04 -0.01,-0.06 -0.01,-0.01 -0.02,-0.03 -0.03,-0.04 -0.02,-0.01 -0.05,0.02 -0.07,0.09 -0.03,0.07 -0.05,0.17 -0.08,0.29 -0.01,0.1 -0.04,0.21 -0.09,0.34 -0.05,0.12 -0.11,0.27 -0.18,0.44 -0.07,0.16 -0.13,0.32 -0.19,0.51 -0.06,0.18 -0.13,0.38 -0.19,0.6 -0.08,0.25 -0.14,0.48 -0.17,0.67 -0.04,0.19 -0.06,0.35 -0.06,0.46l0.01 0.07c0.03,-0.02 0.07,-0.11 0.14,-0.28 0.06,-0.16 0.14,-0.4 0.25,-0.71 0.09,-0.27 0.16,-0.48 0.21,-0.64 0.04,-0.15 0.07,-0.26 0.08,-0.31 0.03,-0.12 0.06,-0.27 0.1,-0.44 0.04,-0.17 0.08,-0.36 0.13,-0.57 0.03,-0.08 0.06,-0.14 0.08,-0.2 0.03,-0.04 0.04,-0.08 0.05,-0.11 0.01,-0.04 0.02,-0.08 0.02,-0.11zm4.79 6.26c-0.03,0.05 -0.06,0.1 -0.1,0.15 -0.04,0.05 -0.07,0.09 -0.11,0.13 -0.07,0.09 -0.14,0.17 -0.21,0.25 -0.08,0.08 -0.15,0.16 -0.22,0.23 -0.08,0.07 -0.15,0.13 -0.22,0.19 -0.08,0.05 -0.14,0.1 -0.2,0.13 -0.08,0.04 -0.16,0.07 -0.23,0.09 -0.08,0.01 -0.15,0.02 -0.21,0 -0.08,-0.01 -0.14,-0.05 -0.2,-0.11 -0.07,-0.06 -0.12,-0.15 -0.17,-0.25 -0.03,-0.08 -0.05,-0.17 -0.05,-0.27 -0.01,-0.11 -0.01,-0.21 0,-0.32 0,-0.09 0.01,-0.18 0.03,-0.28 0.02,-0.09 0.04,-0.19 0.06,-0.27 0.02,-0.09 0.04,-0.18 0.06,-0.27 0.02,-0.09 0.04,-0.17 0.05,-0.24 0.01,-0.06 0.02,-0.11 0.04,-0.16 0.03,-0.06 0.04,-0.11 0.05,-0.17 0.01,-0.04 0.01,-0.09 0.01,-0.14 0,-0.06 -0.01,-0.11 -0.01,-0.15 0.01,-0.09 0,-0.18 0,-0.26 -0.01,-0.09 -0.03,-0.16 -0.05,-0.22 -0.02,-0.04 -0.05,-0.08 -0.08,-0.11 -0.03,-0.03 -0.07,-0.05 -0.12,-0.07 -0.01,0.06 -0.02,0.12 -0.04,0.18 -0.01,0.06 -0.03,0.12 -0.04,0.18 -0.03,0.1 -0.06,0.21 -0.09,0.32 -0.04,0.11 -0.07,0.22 -0.1,0.33 -0.01,0.05 -0.03,0.1 -0.07,0.15 -0.03,0.05 -0.05,0.1 -0.07,0.15 -0.04,0.14 -0.09,0.29 -0.13,0.44 -0.03,0.15 -0.08,0.29 -0.13,0.43 -0.07,0.18 -0.14,0.35 -0.21,0.51 -0.08,0.17 -0.15,0.32 -0.21,0.46 -0.07,0.14 -0.13,0.26 -0.2,0.37 -0.07,0.11 -0.13,0.2 -0.19,0.27 -0.05,0.06 -0.1,0.1 -0.15,0.14 -0.04,0.04 -0.09,0.05 -0.13,0.05 -0.05,0 -0.1,-0.01 -0.15,-0.04 -0.04,-0.03 -0.08,-0.06 -0.12,-0.1 -0.04,-0.06 -0.08,-0.13 -0.11,-0.21 -0.04,-0.08 -0.06,-0.18 -0.09,-0.27 -0.01,-0.08 -0.03,-0.17 -0.04,-0.26 -0.01,-0.08 -0.02,-0.18 -0.02,-0.27 0,-0.12 0,-0.25 0,-0.38 0.01,-0.14 0.01,-0.27 0.02,-0.39 0.01,-0.07 0.02,-0.15 0.03,-0.21 0.01,-0.07 0.02,-0.14 0.03,-0.22 0.01,-0.04 0.03,-0.08 0.08,-0.12 0.04,-0.04 0.08,-0.07 0.13,-0.07 0.04,0 0.08,0.02 0.11,0.06 0.03,0.03 0.05,0.06 0.05,0.09 0,0.04 0,0.1 0.01,0.18 0,0.07 0.01,0.15 0.01,0.24 0.02,0.16 0.04,0.32 0.08,0.47 0.03,0.16 0.07,0.24 0.12,0.24 0.11,0 0.23,-0.14 0.37,-0.41 0.15,-0.28 0.28,-0.56 0.38,-0.85 0.02,-0.05 0.04,-0.11 0.07,-0.16 0.03,-0.05 0.05,-0.11 0.07,-0.17 0.02,-0.05 0.03,-0.1 0.04,-0.16 0,-0.06 0.01,-0.12 0.03,-0.16 0.02,-0.04 0.04,-0.08 0.07,-0.13 0.02,-0.04 0.04,-0.09 0.05,-0.13 0.02,-0.07 0.04,-0.14 0.06,-0.2 0.01,-0.07 0.03,-0.13 0.05,-0.19 0.02,-0.07 0.04,-0.13 0.05,-0.19 0.02,-0.06 0.03,-0.11 0.04,-0.14 -0.06,-0.06 -0.12,-0.11 -0.17,-0.16 -0.04,-0.06 -0.07,-0.1 -0.09,-0.15 -0.02,-0.05 -0.04,-0.1 -0.04,-0.15 -0.01,-0.05 -0.01,-0.09 0,-0.13 0.01,-0.05 0.03,-0.1 0.06,-0.15 0.02,-0.04 0.05,-0.08 0.07,-0.12 0.02,-0.03 0.05,-0.07 0.07,-0.11 0.03,-0.03 0.04,-0.07 0.06,-0.09 0.03,0 0.07,-0.01 0.11,-0.03 0.05,-0.01 0.09,-0.03 0.14,-0.06 0.01,-0.01 0.02,-0.04 0.02,-0.08 0.01,-0.05 0.01,-0.08 0.03,-0.09 0.02,-0.03 0.05,-0.04 0.09,-0.04 0.03,0 0.06,0 0.08,-0.01 0.07,-0.04 0.13,-0.04 0.17,0 0.04,0.05 0.05,0.19 0.03,0.45 0.03,0.03 0.06,0.05 0.09,0.08 0.03,0.03 0.06,0.05 0.09,0.07 0.06,0.05 0.11,0.11 0.17,0.17 0.05,0.06 0.1,0.12 0.14,0.18 0.05,0.07 0.08,0.14 0.11,0.22 0.03,0.07 0.05,0.14 0.07,0.22 0.02,0.07 0.03,0.14 0.04,0.22 0.01,0.08 0.01,0.15 0.01,0.22 0,0.09 0,0.19 -0.01,0.29 -0.01,0.1 -0.03,0.19 -0.04,0.28 -0.01,0.04 -0.03,0.09 -0.06,0.15 -0.03,0.05 -0.04,0.1 -0.05,0.16 -0.01,0.03 -0.01,0.06 -0.01,0.1 0.01,0.04 0.01,0.07 0,0.1 -0.02,0.1 -0.04,0.2 -0.07,0.3 -0.02,0.1 -0.04,0.19 -0.05,0.28 0,0.08 0,0.15 0.02,0.21 0.02,0.06 0.04,0.1 0.08,0.13 0.02,0.02 0.05,0.02 0.09,0.01 0.04,-0.01 0.08,-0.03 0.12,-0.06 0.05,-0.03 0.11,-0.09 0.18,-0.15 0.06,-0.07 0.12,-0.14 0.18,-0.21 0.06,-0.07 0.11,-0.14 0.15,-0.2 0.05,-0.07 0.09,-0.13 0.12,-0.18l0.22 0.62zm-0.21 -0.54c0.04,-0.1 0.09,-0.2 0.16,-0.3 0.06,-0.1 0.15,-0.2 0.25,-0.3 0.01,-0.1 0.02,-0.19 0.03,-0.28 0.01,-0.09 0.01,-0.19 0.02,-0.28 0.01,-0.07 0.02,-0.14 0.05,-0.23 0.02,-0.09 0.04,-0.19 0.07,-0.29 0.03,-0.1 0.07,-0.23 0.13,-0.39 0.05,-0.15 0.12,-0.33 0.2,-0.52 0.08,-0.11 0.15,-0.22 0.23,-0.35 0.08,-0.13 0.16,-0.26 0.23,-0.39 0.04,-0.05 0.08,-0.09 0.13,-0.12 0.04,-0.04 0.09,-0.08 0.13,-0.13 0.04,-0.02 0.09,-0.03 0.14,-0.05 0.05,-0.01 0.1,-0.02 0.17,-0.02 0.08,0 0.15,0.01 0.2,0.04 0.06,0.02 0.1,0.06 0.14,0.11 0.02,0.04 0.04,0.1 0.06,0.17 0.03,0.08 0.05,0.17 0.07,0.28 0.01,0.09 0.02,0.19 0.03,0.31 0,-0.03 0,-0.02 -0.01,0.03 -0.02,0.05 -0.03,0.14 -0.06,0.25l-0.04 0.22c-0.05,0.23 -0.16,0.49 -0.33,0.78 -0.16,0.3 -0.39,0.64 -0.67,1.02 -0.03,0.03 -0.05,0.07 -0.06,0.12 -0.02,0.05 -0.03,0.1 -0.03,0.16 0,0.1 0.01,0.18 0.04,0.26 0.03,0.07 0.06,0.13 0.11,0.17 0.03,0.02 0.07,0.05 0.13,0.08 0.06,0.03 0.13,0.05 0.21,0.08 0.14,-0.02 0.26,-0.05 0.37,-0.09 0.11,-0.05 0.21,-0.11 0.29,-0.18 0.02,-0.01 0.05,-0.03 0.09,-0.06 0.04,-0.02 0.07,-0.06 0.11,-0.1 0.04,0.13 0.08,0.26 0.12,0.36 0.03,0.11 0.06,0.21 0.08,0.28 -0.19,0.27 -0.37,0.47 -0.53,0.61 -0.16,0.13 -0.31,0.2 -0.44,0.2 -0.06,0.05 -0.12,0.08 -0.19,0.1 -0.07,0.02 -0.15,0.03 -0.25,0.03 -0.12,0 -0.24,-0.02 -0.33,-0.08 -0.1,-0.05 -0.18,-0.12 -0.25,-0.22 -0.03,-0.05 -0.07,-0.12 -0.1,-0.21 -0.03,-0.1 -0.07,-0.2 -0.11,-0.33 -0.03,-0.11 -0.06,-0.18 -0.09,-0.23 -0.02,-0.05 -0.05,-0.08 -0.09,-0.08 -0.02,0 -0.06,0.02 -0.09,0.06 -0.03,0.03 -0.07,0.08 -0.11,0.15 -0.02,-0.07 -0.04,-0.15 -0.08,-0.26 -0.03,-0.1 -0.08,-0.23 -0.13,-0.38zm1.64 -2.28c-0.08,0 -0.18,0.13 -0.31,0.4 -0.13,0.28 -0.19,0.48 -0.19,0.6 0,0.03 0,0.05 0.01,0.06 0.01,0.01 0.03,0.02 0.06,0.02 0.04,0 0.07,-0.03 0.09,-0.08 0.03,-0.05 0.05,-0.11 0.07,-0.15 0.04,-0.05 0.07,-0.1 0.11,-0.15 0.04,-0.06 0.07,-0.11 0.1,-0.17 0.05,-0.06 0.08,-0.13 0.1,-0.19 0.02,-0.07 0.03,-0.13 0.03,-0.2 0,-0.04 -0.01,-0.08 -0.02,-0.1 -0.01,-0.03 -0.03,-0.04 -0.05,-0.04zm5.65 2.92c-0.02,0.05 -0.04,0.08 -0.05,0.1 -0.02,0.02 -0.04,0.06 -0.07,0.11 -0.02,0.03 -0.04,0.05 -0.07,0.08 -0.03,0.03 -0.06,0.07 -0.09,0.1 -0.02,0.04 -0.05,0.08 -0.08,0.12 -0.02,0.05 -0.05,0.09 -0.08,0.11 -0.08,0.08 -0.16,0.15 -0.25,0.2 -0.09,0.06 -0.18,0.11 -0.26,0.15 -0.07,0.02 -0.13,0.05 -0.19,0.06 -0.07,0.02 -0.13,0.03 -0.19,0.03 -0.04,0 -0.08,-0.01 -0.12,-0.02 -0.03,-0.02 -0.06,-0.03 -0.1,-0.05 -0.03,-0.02 -0.05,-0.05 -0.08,-0.08 -0.03,-0.04 -0.05,-0.08 -0.07,-0.11 -0.02,-0.04 -0.04,-0.08 -0.06,-0.14 -0.01,-0.05 -0.03,-0.1 -0.04,-0.16 0,-0.03 0,-0.07 -0.01,-0.11 0,-0.05 0,-0.09 -0.01,-0.14 0,-0.05 -0.01,-0.11 -0.01,-0.17 -0.01,-0.06 -0.02,-0.12 -0.02,-0.18 0,-0.04 0.01,-0.09 0.02,-0.13 0.01,-0.04 0.01,-0.08 0.01,-0.13 0.01,-0.07 0.01,-0.14 0.02,-0.21 0.01,-0.08 0.01,-0.15 0.02,-0.22 -0.04,0 -0.09,0.01 -0.14,0.03 -0.05,0.02 -0.09,0.05 -0.13,0.09 -0.04,0.04 -0.08,0.09 -0.12,0.15 -0.03,0.06 -0.07,0.12 -0.11,0.18 -0.04,0.06 -0.09,0.12 -0.14,0.19 -0.05,0.07 -0.1,0.15 -0.14,0.22 -0.04,0.07 -0.07,0.15 -0.11,0.23 -0.03,0.08 -0.07,0.17 -0.11,0.25 -0.03,0.06 -0.05,0.13 -0.08,0.22 -0.02,0.09 -0.05,0.17 -0.09,0.23 -0.02,0.05 -0.06,0.11 -0.1,0.19 -0.04,0.08 -0.07,0.14 -0.1,0.19 -0.03,0.04 -0.07,0.07 -0.13,0.09 -0.07,0.01 -0.11,0.02 -0.14,0.05 -0.05,0.03 -0.1,0.04 -0.13,0.03 -0.03,-0.02 -0.07,-0.04 -0.11,-0.07 -0.03,-0.01 -0.07,-0.04 -0.1,-0.07 -0.03,-0.04 -0.05,-0.07 -0.07,-0.1 -0.02,-0.05 -0.04,-0.1 -0.04,-0.16 0,-0.06 0,-0.13 0.01,-0.2 0.01,-0.04 0.02,-0.1 0.03,-0.16 0.02,-0.06 0.03,-0.12 0.04,-0.17 0.02,-0.08 0.03,-0.17 0.05,-0.25 0.01,-0.08 0.03,-0.17 0.05,-0.25 0.02,-0.09 0.04,-0.19 0.07,-0.29 0.03,-0.09 0.05,-0.19 0.07,-0.27 0.03,-0.1 0.05,-0.19 0.07,-0.29 0.03,-0.09 0.04,-0.17 0.05,-0.25 0.02,-0.09 0.02,-0.17 0.02,-0.23 0,-0.06 -0.02,-0.1 -0.04,-0.12 -0.02,-0.02 -0.05,-0.01 -0.1,0.01 -0.04,0.03 -0.08,0.07 -0.12,0.13 -0.04,0.04 -0.09,0.1 -0.14,0.17 -0.04,0.07 -0.09,0.14 -0.14,0.21 -0.03,0.04 -0.06,0.08 -0.09,0.13 -0.04,0.06 -0.07,0.11 -0.11,0.17 -0.04,0.06 -0.08,0.13 -0.13,0.2 -0.04,0.06 -0.09,0.13 -0.13,0.18 -0.03,0.05 -0.05,0.08 -0.08,0.12 -0.03,0.03 -0.06,0.06 -0.08,0.09l-0.21 -0.64c0.03,-0.03 0.07,-0.07 0.1,-0.12 0.03,-0.04 0.07,-0.09 0.1,-0.14 0.06,-0.08 0.13,-0.18 0.2,-0.3 0.08,-0.12 0.15,-0.23 0.22,-0.35 0.07,-0.12 0.14,-0.24 0.22,-0.36 0.07,-0.12 0.14,-0.23 0.21,-0.34 0.05,-0.08 0.1,-0.16 0.15,-0.24 0.05,-0.07 0.1,-0.15 0.15,-0.23 0.06,-0.11 0.13,-0.21 0.19,-0.31 0.06,-0.1 0.12,-0.17 0.17,-0.23 0.06,-0.07 0.12,-0.13 0.18,-0.17 0.06,-0.04 0.12,-0.06 0.18,-0.06 0.04,0 0.08,0.01 0.12,0.02 0.05,0.02 0.09,0.04 0.14,0.07 0.04,0.03 0.08,0.07 0.1,0.13 0.02,0.05 0.04,0.12 0.05,0.19 0.01,0.08 0.01,0.17 0,0.27 -0.01,0.1 -0.02,0.21 -0.05,0.32 -0.01,0.07 -0.02,0.15 -0.04,0.23 -0.03,0.09 -0.05,0.17 -0.07,0.26 -0.01,0.05 -0.03,0.11 -0.05,0.18 -0.02,0.06 -0.03,0.13 -0.05,0.18 -0.03,0.08 -0.06,0.17 -0.09,0.27 -0.03,0.09 -0.06,0.18 -0.09,0.27 -0.04,0.1 -0.07,0.21 -0.12,0.31 -0.04,0.11 -0.07,0.21 -0.1,0.28 -0.02,0.09 -0.03,0.17 -0.02,0.23 0,0.06 0.02,0.09 0.05,0.11 0.01,-0.01 0.03,-0.03 0.05,-0.08 0.01,-0.04 0.03,-0.09 0.05,-0.13 0.03,-0.05 0.06,-0.1 0.07,-0.17 0.02,-0.06 0.05,-0.13 0.08,-0.2 0.03,-0.07 0.07,-0.14 0.12,-0.21 0.05,-0.07 0.09,-0.14 0.12,-0.22 0.03,-0.05 0.07,-0.1 0.12,-0.14 0.04,-0.05 0.08,-0.09 0.11,-0.13 0.05,-0.06 0.1,-0.11 0.16,-0.17 0.05,-0.04 0.11,-0.08 0.18,-0.11 0.03,-0.02 0.07,-0.04 0.12,-0.05 0.04,-0.02 0.08,-0.02 0.12,-0.03 0.01,-0.06 0.02,-0.11 0.03,-0.16 0.01,-0.06 0.03,-0.11 0.04,-0.16 0.01,-0.06 0.03,-0.11 0.05,-0.17 0.02,-0.05 0.03,-0.1 0.04,-0.14 0.02,-0.06 0.03,-0.12 0.03,-0.18 0.01,-0.06 0.02,-0.11 0.03,-0.16 0.01,-0.06 0.03,-0.11 0.04,-0.17 0.02,-0.06 0.03,-0.12 0.04,-0.17 0.02,-0.08 0.08,-0.15 0.17,-0.21 0.09,-0.07 0.18,-0.11 0.27,-0.15 0.08,-0.03 0.17,-0.03 0.28,-0.02 0.11,0.02 0.16,0.04 0.15,0.08 -0.01,0.05 -0.03,0.1 -0.04,0.15 -0.02,0.06 -0.03,0.12 -0.04,0.18 -0.03,0.13 -0.07,0.27 -0.11,0.43 -0.04,0.15 -0.07,0.3 -0.1,0.44 -0.02,0.07 -0.03,0.14 -0.05,0.22 -0.01,0.07 -0.03,0.13 -0.04,0.19 0.02,0 0.07,0.01 0.14,0.04 0.03,0.04 0.04,0.1 0.03,0.18 -0.02,0.07 -0.04,0.14 -0.07,0.2 -0.03,0.17 -0.05,0.27 -0.07,0.29 -0.02,0.02 -0.07,0.04 -0.16,0.06 -0.01,0.06 -0.02,0.11 -0.03,0.14 0,0.04 -0.01,0.09 -0.02,0.15 -0.01,0.07 -0.01,0.12 -0.01,0.17 0,0.04 0,0.09 0,0.14 0,0.12 0,0.22 0.01,0.3 0.01,0.09 0.04,0.13 0.08,0.14 0.02,0.01 0.05,0 0.09,-0.01 0.04,-0.01 0.08,-0.03 0.12,-0.06 0.04,-0.02 0.08,-0.06 0.12,-0.1 0.04,-0.04 0.08,-0.08 0.11,-0.12 0.04,-0.04 0.08,-0.09 0.12,-0.14 0.03,-0.05 0.07,-0.1 0.1,-0.15 0.02,-0.04 0.03,-0.06 0.04,-0.07 0,-0.01 0.02,-0.04 0.03,-0.07l0.21 0.64z"/>
    <path class="fil1" d="M127.24 67.21c0.01,-0.02 0.02,-0.04 0.03,-0.05 0.01,-0.02 0.01,-0.05 0.01,-0.07 0.06,-0.07 0.13,-0.16 0.2,-0.27 0.08,-0.12 0.16,-0.25 0.25,-0.4 0.08,-0.14 0.15,-0.28 0.23,-0.42 0.09,-0.15 0.17,-0.29 0.26,-0.43 0.08,-0.14 0.15,-0.29 0.23,-0.44 0.07,-0.15 0.15,-0.3 0.23,-0.44 0.14,-0.1 0.24,-0.16 0.32,-0.2 0.07,-0.03 0.12,-0.05 0.15,-0.05 0.05,0 0.09,0.02 0.12,0.07 0.03,0.04 0.04,0.1 0.04,0.19 0,0.03 0,0.07 -0.02,0.12 -0.01,0.05 -0.02,0.11 -0.03,0.17 -0.02,0.09 -0.05,0.19 -0.08,0.29 -0.03,0.16 -0.06,0.33 -0.1,0.49 -0.04,0.17 -0.07,0.33 -0.11,0.49 -0.03,0.2 -0.06,0.38 -0.08,0.55 -0.02,0.17 -0.03,0.33 -0.03,0.47 0,0.26 0.01,0.45 0.03,0.58 0.02,0.13 0.05,0.18 0.08,0.17 0.04,-0.03 0.08,-0.06 0.13,-0.1 0.05,-0.04 0.11,-0.09 0.18,-0.14 0.06,-0.09 0.13,-0.2 0.21,-0.33 0.07,-0.13 0.17,-0.29 0.28,-0.47 0.06,-0.13 0.12,-0.25 0.19,-0.38 0.02,-0.04 0.05,-0.08 0.08,-0.14 0.03,-0.05 0.06,-0.1 0.09,-0.15 0.06,-0.23 0.14,-0.39 0.22,-0.5 0.08,-0.12 0.17,-0.17 0.27,-0.17 0.08,0 0.16,0.02 0.21,0.04 0.05,0.04 0.09,0.08 0.11,0.14 0.01,0.04 0.02,0.09 0.02,0.17 0.01,0.08 0.01,0.19 0.01,0.32 0,0.05 0.01,0.13 0.03,0.23 0.01,0.09 0.02,0.17 0.02,0.21 0,0.18 0.02,0.31 0.07,0.39 0.04,0.09 0.11,0.14 0.2,0.14 0.03,0 0.06,-0.01 0.1,-0.03 0.03,-0.02 0.07,-0.03 0.11,-0.05l0.21 0.64c-0.21,0.18 -0.38,0.3 -0.51,0.39 -0.13,0.09 -0.23,0.14 -0.29,0.14 -0.17,0 -0.31,-0.06 -0.42,-0.19 -0.11,-0.12 -0.19,-0.3 -0.24,-0.54 -0.01,-0.05 -0.02,-0.11 -0.05,-0.17 -0.02,-0.06 -0.05,-0.11 -0.08,-0.17 -0.03,0.05 -0.07,0.11 -0.11,0.17 -0.03,0.07 -0.08,0.13 -0.12,0.2 -0.09,0.15 -0.19,0.3 -0.28,0.45 -0.09,0.15 -0.18,0.3 -0.28,0.44 -0.12,0.2 -0.24,0.34 -0.36,0.42 -0.12,0.09 -0.24,0.13 -0.34,0.13 -0.16,0 -0.29,-0.06 -0.38,-0.19 -0.1,-0.13 -0.16,-0.32 -0.19,-0.58 -0.03,-0.24 -0.05,-0.43 -0.06,-0.57 -0.01,-0.13 -0.01,-0.21 0,-0.24 -0.01,-0.14 -0.02,-0.24 -0.03,-0.31 -0.01,-0.07 -0.03,-0.11 -0.05,-0.11l-0.03 0.02 -0.3 0.41c-0.01,0.04 -0.02,0.08 -0.05,0.13 -0.02,0.05 -0.05,0.1 -0.09,0.17 -0.02,-0.07 -0.04,-0.15 -0.08,-0.26 -0.03,-0.1 -0.08,-0.23 -0.13,-0.38zm4.26 0c0.04,-0.1 0.1,-0.2 0.16,-0.3 0.07,-0.1 0.15,-0.2 0.25,-0.3 0.01,-0.1 0.02,-0.19 0.03,-0.28 0.01,-0.09 0.02,-0.19 0.02,-0.28 0.01,-0.07 0.03,-0.14 0.05,-0.23 0.02,-0.09 0.05,-0.19 0.07,-0.29 0.03,-0.1 0.08,-0.23 0.13,-0.39 0.05,-0.15 0.12,-0.33 0.21,-0.52 0.07,-0.11 0.14,-0.22 0.22,-0.35 0.08,-0.13 0.16,-0.26 0.24,-0.39 0.03,-0.05 0.08,-0.09 0.12,-0.12 0.04,-0.04 0.09,-0.08 0.13,-0.13 0.04,-0.02 0.09,-0.03 0.14,-0.05 0.05,-0.01 0.11,-0.02 0.17,-0.02 0.09,0 0.16,0.01 0.21,0.04 0.05,0.02 0.09,0.06 0.13,0.11 0.02,0.04 0.04,0.1 0.07,0.17 0.02,0.08 0.04,0.17 0.06,0.28 0.01,0.09 0.02,0.19 0.04,0.31 0,-0.03 -0.01,-0.02 -0.02,0.03 -0.01,0.05 -0.03,0.14 -0.05,0.25l-0.05 0.22c-0.05,0.23 -0.16,0.49 -0.32,0.78 -0.17,0.3 -0.4,0.64 -0.68,1.02 -0.02,0.03 -0.04,0.07 -0.06,0.12 -0.02,0.05 -0.03,0.1 -0.03,0.16 0,0.1 0.02,0.18 0.04,0.26 0.03,0.07 0.07,0.13 0.11,0.17 0.03,0.02 0.08,0.05 0.13,0.08 0.07,0.03 0.14,0.05 0.22,0.08 0.13,-0.02 0.26,-0.05 0.36,-0.09 0.11,-0.05 0.21,-0.11 0.3,-0.18 0.02,-0.01 0.04,-0.03 0.08,-0.06 0.04,-0.02 0.08,-0.06 0.11,-0.1 0.05,0.13 0.09,0.26 0.12,0.36 0.04,0.11 0.06,0.21 0.08,0.28 -0.19,0.27 -0.37,0.47 -0.53,0.61 -0.16,0.13 -0.3,0.2 -0.44,0.2 -0.05,0.05 -0.11,0.08 -0.18,0.1 -0.07,0.02 -0.16,0.03 -0.25,0.03 -0.13,0 -0.24,-0.02 -0.34,-0.08 -0.1,-0.05 -0.18,-0.12 -0.24,-0.22 -0.04,-0.05 -0.07,-0.12 -0.11,-0.21 -0.03,-0.1 -0.07,-0.2 -0.1,-0.33 -0.03,-0.11 -0.06,-0.18 -0.09,-0.23 -0.03,-0.05 -0.06,-0.08 -0.09,-0.08 -0.03,0 -0.06,0.02 -0.1,0.06 -0.03,0.03 -0.07,0.08 -0.11,0.15 -0.01,-0.07 -0.04,-0.15 -0.07,-0.26 -0.04,-0.1 -0.08,-0.23 -0.14,-0.38zm1.64 -2.28c-0.07,0 -0.18,0.13 -0.3,0.4 -0.13,0.28 -0.19,0.48 -0.19,0.6 0,0.03 0,0.05 0.01,0.06 0.01,0.01 0.03,0.02 0.05,0.02 0.04,0 0.07,-0.03 0.09,-0.08 0.03,-0.05 0.05,-0.11 0.07,-0.15 0.04,-0.05 0.08,-0.1 0.11,-0.15 0.04,-0.06 0.07,-0.11 0.11,-0.17 0.04,-0.06 0.07,-0.13 0.09,-0.19 0.02,-0.07 0.03,-0.13 0.03,-0.2 0,-0.04 0,-0.08 -0.02,-0.1 -0.01,-0.03 -0.03,-0.04 -0.05,-0.04zm3.73 1.97l0.47 -0.42c0.02,-0.02 0.04,-0.05 0.06,-0.09 0.02,-0.04 0.05,-0.1 0.08,-0.17 0.03,-0.07 0.06,-0.12 0.1,-0.16 0.04,-0.04 0.08,-0.08 0.13,-0.11 0.03,-0.05 0.07,-0.11 0.12,-0.18 0.05,-0.07 0.12,-0.15 0.19,-0.24 0.04,-0.03 0.09,-0.07 0.15,-0.13 0.06,-0.05 0.12,-0.12 0.19,-0.21 0.31,-0.41 0.58,-0.71 0.81,-0.91 0.24,-0.2 0.43,-0.3 0.6,-0.3 0.09,0 0.15,0.02 0.19,0.07 0.05,0.06 0.07,0.13 0.07,0.22 0,0.1 -0.02,0.19 -0.04,0.26 -0.03,0.08 -0.07,0.14 -0.12,0.19 -0.09,0.09 -0.18,0.18 -0.28,0.29 -0.05,0.09 -0.12,0.2 -0.2,0.31 -0.08,0.11 -0.17,0.22 -0.28,0.32 -0.03,0.07 -0.06,0.12 -0.08,0.17 -0.02,0.02 -0.05,0.06 -0.1,0.12 -0.05,0.07 -0.11,0.13 -0.19,0.21 -0.03,0.11 -0.11,0.24 -0.22,0.41 -0.12,0.16 -0.27,0.36 -0.46,0.59 -0.02,0.03 -0.06,0.1 -0.13,0.22 -0.06,0.12 -0.14,0.27 -0.24,0.47l0.04 0.06c0.07,-0.03 0.15,-0.09 0.23,-0.17 0.09,-0.08 0.18,-0.18 0.28,-0.31 0.11,-0.15 0.21,-0.27 0.28,-0.36 0.07,-0.09 0.13,-0.15 0.16,-0.18 0.02,-0.02 0.04,-0.04 0.07,-0.06 0.02,-0.01 0.05,-0.04 0.08,-0.07 0.16,-0.25 0.3,-0.45 0.44,-0.57 0.14,-0.12 0.26,-0.19 0.38,-0.19 0.07,0 0.12,0.04 0.16,0.12 0.04,0.08 0.06,0.19 0.07,0.35 -0.01,0.23 -0.01,0.46 -0.01,0.67 -0.01,0.15 0.02,0.29 0.09,0.41 0.06,0.12 0.14,0.18 0.24,0.18 0.03,0 0.06,-0.01 0.09,-0.04 0.03,-0.02 0.06,-0.05 0.09,-0.09 0.03,-0.04 0.05,-0.09 0.07,-0.12 0.02,-0.04 0.05,-0.08 0.07,-0.12 0.01,-0.01 0.03,-0.02 0.06,-0.05 0.02,-0.02 0.05,-0.05 0.07,-0.08 0.05,0.14 0.09,0.26 0.13,0.37 0.03,0.1 0.05,0.2 0.07,0.27 -0.08,0.1 -0.16,0.21 -0.23,0.31 -0.08,0.11 -0.16,0.21 -0.25,0.3 -0.1,0.11 -0.2,0.19 -0.29,0.25 -0.1,0.06 -0.19,0.08 -0.29,0.08 -0.22,0 -0.39,-0.08 -0.51,-0.26 -0.12,-0.17 -0.19,-0.44 -0.21,-0.79 0,-0.04 -0.01,-0.08 -0.01,-0.13 -0.01,-0.04 -0.03,-0.09 -0.06,-0.13 -0.01,0.02 -0.03,0.04 -0.05,0.07 -0.02,0.03 -0.05,0.06 -0.07,0.1 -0.05,0.05 -0.11,0.11 -0.17,0.18 -0.07,0.07 -0.15,0.15 -0.24,0.25 -0.12,0.17 -0.22,0.31 -0.3,0.42 -0.08,0.1 -0.14,0.18 -0.17,0.23 -0.07,0.08 -0.15,0.16 -0.24,0.24 -0.09,0.08 -0.2,0.16 -0.31,0.24 -0.07,0.06 -0.13,0.1 -0.18,0.13 -0.05,0.03 -0.09,0.04 -0.11,0.04 -0.17,0 -0.29,-0.05 -0.37,-0.16 -0.08,-0.11 -0.12,-0.28 -0.12,-0.52 0,-0.12 0.02,-0.24 0.06,-0.36 0.04,-0.12 0.1,-0.23 0.18,-0.34 0.01,-0.06 0.01,-0.11 0.01,-0.15 0,-0.02 0,-0.04 -0.01,-0.07 -0.01,-0.02 -0.02,-0.05 -0.03,-0.08 -0.02,-0.07 -0.04,-0.15 -0.07,-0.23 -0.03,-0.08 -0.05,-0.17 -0.08,-0.26 0.01,-0.02 0.03,-0.06 0.05,-0.11 0.03,-0.05 0.06,-0.12 0.09,-0.2zm8.31 0.84c-0.02,0.04 -0.05,0.07 -0.08,0.11 -0.03,0.04 -0.06,0.07 -0.08,0.11 -0.08,0.09 -0.15,0.17 -0.23,0.25 -0.08,0.08 -0.16,0.15 -0.23,0.21 -0.05,0.04 -0.11,0.08 -0.16,0.12 -0.06,0.04 -0.12,0.07 -0.17,0.09 -0.05,0.03 -0.1,0.05 -0.14,0.06 -0.05,0.02 -0.1,0.02 -0.13,0.02 -0.07,0 -0.12,0 -0.19,-0.03 -0.06,-0.02 -0.11,-0.04 -0.16,-0.08 -0.07,-0.04 -0.14,-0.1 -0.2,-0.17 -0.06,-0.07 -0.12,-0.15 -0.18,-0.23 -0.04,-0.05 -0.08,-0.12 -0.13,-0.18 -0.04,-0.07 -0.09,-0.16 -0.15,-0.25 -0.02,0.03 -0.04,0.07 -0.06,0.11 -0.03,0.04 -0.05,0.08 -0.07,0.12 -0.04,0.07 -0.08,0.14 -0.12,0.21 -0.04,0.07 -0.08,0.14 -0.12,0.21 -0.05,0.09 -0.09,0.16 -0.12,0.19 -0.02,0.03 -0.06,0.08 -0.12,0.16 -0.04,0.07 -0.09,0.15 -0.12,0.23 -0.04,0.08 -0.08,0.15 -0.12,0.21 -0.11,0.16 -0.21,0.28 -0.3,0.36 -0.09,0.09 -0.15,0.13 -0.17,0.13 -0.13,-0.04 -0.21,-0.1 -0.27,-0.2 -0.06,-0.09 -0.1,-0.21 -0.12,-0.36 -0.03,-0.15 -0.03,-0.31 -0.01,-0.48 0.02,-0.18 0.04,-0.34 0.07,-0.5 0.02,-0.12 0.05,-0.25 0.08,-0.39 0.03,-0.14 0.06,-0.27 0.09,-0.4 0.04,-0.16 0.07,-0.31 0.09,-0.43 0.03,-0.12 0.03,-0.19 0.01,-0.2 -0.02,-0.02 -0.05,0.02 -0.1,0.11 -0.05,0.09 -0.11,0.19 -0.16,0.3 -0.08,0.13 -0.15,0.26 -0.23,0.4 -0.07,0.13 -0.17,0.26 -0.29,0.39l-0.2 -0.63c0.13,-0.16 0.28,-0.37 0.45,-0.63 0.17,-0.26 0.38,-0.6 0.63,-1 0.25,-0.42 0.43,-0.71 0.52,-0.88 0.09,-0.17 0.21,-0.2 0.34,-0.09 0.02,0.01 0.05,0.04 0.08,0.08 0.02,0.04 0.04,0.08 0.05,0.14 0,0.04 0.01,0.1 0.01,0.17 0.01,0.06 0.01,0.13 0,0.18 0,0.05 -0.02,0.11 -0.05,0.16 -0.02,0.05 -0.05,0.11 -0.06,0.16 -0.01,0.05 -0.02,0.12 -0.02,0.18 0,0.07 0,0.13 -0.02,0.2 -0.01,0.08 -0.03,0.17 -0.05,0.26 -0.02,0.1 -0.04,0.19 -0.06,0.29 -0.02,0.11 -0.04,0.21 -0.07,0.32 -0.03,0.11 -0.05,0.22 -0.07,0.33 -0.01,0.07 -0.03,0.15 -0.04,0.23 -0.02,0.08 -0.04,0.15 -0.05,0.22 -0.01,0.08 -0.02,0.16 -0.02,0.24 -0.01,0.08 -0.02,0.15 -0.02,0.21 -0.02,0.14 -0.01,0.21 0.02,0.2 0.03,0 0.08,-0.08 0.14,-0.22 0.04,-0.08 0.08,-0.18 0.13,-0.29 0.05,-0.12 0.1,-0.21 0.15,-0.29 0.03,-0.06 0.06,-0.1 0.08,-0.13 0.03,-0.04 0.05,-0.08 0.07,-0.13 -0.01,-0.03 -0.03,-0.07 -0.05,-0.12 -0.04,-0.05 -0.05,-0.09 -0.05,-0.12 0,-0.04 0,-0.09 0.02,-0.15 0.01,-0.06 0.02,-0.11 0.03,-0.15 0.01,-0.06 0.03,-0.12 0.06,-0.19 0.03,-0.06 0.07,-0.13 0.11,-0.19 0.06,-0.09 0.12,-0.15 0.18,-0.18 0.05,-0.04 0.1,-0.06 0.14,-0.05 0.22,-0.51 0.4,-0.94 0.55,-1.3 0.15,-0.35 0.24,-0.59 0.28,-0.71 0.03,-0.09 0.09,-0.16 0.16,-0.2 0.07,-0.04 0.14,-0.06 0.2,-0.04 0.06,0.01 0.12,0.07 0.17,0.16 0.05,0.09 0.06,0.22 0.04,0.4 -0.01,0.04 -0.02,0.09 -0.04,0.15 -0.02,0.06 -0.04,0.13 -0.07,0.2 -0.03,0.08 -0.07,0.16 -0.13,0.26 -0.05,0.1 -0.1,0.2 -0.15,0.31 -0.02,0.04 -0.04,0.08 -0.05,0.14 -0.01,0.05 -0.03,0.1 -0.05,0.14 -0.03,0.06 -0.07,0.15 -0.12,0.29 -0.05,0.13 -0.09,0.23 -0.12,0.29 -0.06,0.11 -0.1,0.2 -0.14,0.25 -0.04,0.05 -0.09,0.13 -0.16,0.25 0.03,0.08 0.05,0.15 0.08,0.21 0.02,0.07 0.05,0.14 0.08,0.21 0.03,0.08 0.07,0.15 0.1,0.21 0.04,0.07 0.08,0.12 0.11,0.17 0.04,0.05 0.08,0.09 0.12,0.12 0.04,0.03 0.09,0.05 0.13,0.06 0.05,0.01 0.11,0.01 0.17,-0.01 0.06,-0.01 0.12,-0.04 0.18,-0.08 0.04,-0.03 0.09,-0.06 0.13,-0.1 0.05,-0.04 0.1,-0.09 0.15,-0.14 0.03,-0.03 0.06,-0.07 0.09,-0.11 0.04,-0.03 0.07,-0.07 0.1,-0.11l0.2 0.65zm-0.27 -0.53c0.03,-0.04 0.05,-0.08 0.08,-0.13 0.02,-0.06 0.05,-0.12 0.09,-0.18 0.15,-0.26 0.29,-0.49 0.44,-0.69 0.14,-0.21 0.27,-0.39 0.4,-0.55 0.06,-0.08 0.14,-0.19 0.24,-0.32 0.09,-0.14 0.19,-0.29 0.32,-0.46 0.12,-0.07 0.26,-0.14 0.4,-0.23 0.1,0 0.16,0.05 0.21,0.13 0.04,0.08 0.07,0.2 0.07,0.35 0,0.13 -0.01,0.27 -0.03,0.43 -0.01,0.15 -0.04,0.31 -0.06,0.46 -0.03,0.13 -0.06,0.25 -0.08,0.37 0,0.03 0.01,0.06 0.02,0.07 0.01,0.02 0.02,0.03 0.05,0.03 0.05,-0.04 0.15,-0.15 0.3,-0.36 0.14,-0.2 0.34,-0.48 0.58,-0.84 0.2,-0.31 0.38,-0.54 0.54,-0.7 0.15,-0.15 0.27,-0.22 0.37,-0.22 0.1,0 0.17,0.05 0.21,0.15 0.05,0.1 0.07,0.25 0.07,0.44 0,0.29 -0.01,0.56 -0.04,0.83 -0.03,0.27 -0.09,0.52 -0.16,0.76 -0.02,0.05 -0.02,0.09 -0.03,0.12 0,0.03 0,0.07 0,0.09 0,0.04 0.02,0.07 0.06,0.1 0.03,-0.04 0.06,-0.08 0.09,-0.15 0.04,-0.06 0.08,-0.13 0.13,-0.23 0.08,-0.09 0.16,-0.17 0.23,-0.27 0.08,-0.09 0.17,-0.18 0.26,-0.27 0.1,-0.1 0.19,-0.18 0.29,-0.24 0.1,-0.05 0.2,-0.07 0.29,-0.07 0.02,0 0.04,0 0.06,0.01 0.01,0.02 0.03,0.04 0.05,0.05 0.08,0.1 0.14,0.19 0.19,0.26 0.05,0.08 0.09,0.15 0.11,0.2 0.13,0.38 0.25,0.66 0.36,0.84 0.1,0.19 0.19,0.28 0.27,0.28 0.02,0 0.03,-0.01 0.05,-0.02 0.02,-0.01 0.03,-0.02 0.05,-0.04 0.08,0.23 0.15,0.44 0.2,0.64 -0.12,0.14 -0.23,0.24 -0.33,0.3 -0.09,0.07 -0.18,0.11 -0.25,0.11 -0.23,0 -0.48,-0.21 -0.73,-0.63 -0.25,-0.42 -0.44,-0.63 -0.57,-0.63 -0.18,0 -0.48,0.36 -0.89,1.08 -0.41,0.72 -0.67,1.09 -0.77,1.09 -0.05,0 -0.12,-0.01 -0.21,-0.03 -0.02,-0.01 -0.05,-0.04 -0.06,-0.09 -0.01,-0.04 -0.02,-0.09 -0.02,-0.15 0,-0.08 0.01,-0.17 0.03,-0.28 0.02,-0.12 0.05,-0.25 0.08,-0.41 0.05,-0.2 0.08,-0.35 0.11,-0.47 0.03,-0.12 0.04,-0.2 0.05,-0.25 0.01,-0.06 0.02,-0.18 0.04,-0.36 0.02,-0.17 0.04,-0.41 0.08,-0.71 0,-0.05 -0.01,-0.09 -0.04,-0.11 -0.02,-0.03 -0.04,-0.05 -0.07,-0.05 -0.02,0 -0.05,0.01 -0.08,0.03 -0.03,0.02 -0.06,0.06 -0.1,0.11 -0.04,0.06 -0.08,0.12 -0.13,0.18 -0.05,0.06 -0.13,0.15 -0.24,0.26 -0.12,0.19 -0.24,0.38 -0.37,0.57 -0.13,0.2 -0.25,0.39 -0.38,0.59 -0.21,0.33 -0.37,0.57 -0.49,0.73 -0.13,0.16 -0.2,0.23 -0.24,0.23 -0.1,0 -0.18,-0.01 -0.23,-0.04 -0.05,-0.04 -0.08,-0.09 -0.08,-0.15 0,-0.16 0.06,-0.48 0.18,-0.97 0.12,-0.49 0.18,-0.83 0.18,-1.03 0,-0.04 0,-0.06 -0.02,-0.09 -0.02,-0.02 -0.04,-0.03 -0.06,-0.03 -0.04,0 -0.09,0.03 -0.14,0.1 -0.06,0.06 -0.12,0.16 -0.2,0.3 -0.04,0.07 -0.1,0.16 -0.17,0.25 -0.07,0.1 -0.15,0.22 -0.25,0.35 -0.01,0.03 -0.02,0.07 -0.04,0.1 -0.02,0.04 -0.03,0.07 -0.06,0.1 -0.01,-0.07 -0.03,-0.15 -0.07,-0.26 -0.03,-0.1 -0.08,-0.23 -0.14,-0.38zm6.47 0c0.02,-0.02 0.03,-0.04 0.04,-0.05 0,-0.02 0.01,-0.05 0.01,-0.07 0.06,-0.07 0.12,-0.16 0.2,-0.27 0.07,-0.12 0.16,-0.25 0.25,-0.4 0.07,-0.14 0.15,-0.28 0.23,-0.42 0.08,-0.15 0.17,-0.29 0.26,-0.43 0.08,-0.14 0.15,-0.29 0.22,-0.44 0.08,-0.15 0.16,-0.3 0.24,-0.44 0.13,-0.1 0.24,-0.16 0.31,-0.2 0.08,-0.03 0.13,-0.05 0.16,-0.05 0.05,0 0.09,0.02 0.12,0.07 0.02,0.04 0.04,0.1 0.04,0.19 0,0.03 -0.01,0.07 -0.02,0.12 -0.01,0.05 -0.02,0.11 -0.03,0.17 -0.03,0.09 -0.06,0.19 -0.09,0.29 -0.02,0.16 -0.05,0.33 -0.09,0.49 -0.04,0.17 -0.08,0.33 -0.11,0.49 -0.04,0.2 -0.06,0.38 -0.08,0.55 -0.02,0.17 -0.03,0.33 -0.03,0.47 0,0.26 0.01,0.45 0.03,0.58 0.02,0.13 0.04,0.18 0.08,0.17 0.03,-0.03 0.08,-0.06 0.13,-0.1 0.05,-0.04 0.11,-0.09 0.18,-0.14 0.06,-0.09 0.13,-0.2 0.2,-0.33 0.08,-0.13 0.17,-0.29 0.28,-0.47 0.07,-0.13 0.13,-0.25 0.19,-0.38 0.03,-0.04 0.05,-0.08 0.09,-0.14 0.03,-0.05 0.06,-0.1 0.09,-0.15 0.06,-0.23 0.13,-0.39 0.22,-0.5 0.08,-0.12 0.16,-0.17 0.26,-0.17 0.09,0 0.16,0.02 0.22,0.04 0.05,0.04 0.09,0.08 0.11,0.14 0.01,0.04 0.02,0.09 0.02,0.17 0.01,0.08 0.01,0.19 0.01,0.32 0,0.05 0.01,0.13 0.02,0.23 0.02,0.09 0.03,0.17 0.03,0.21 0,0.18 0.02,0.31 0.07,0.39 0.04,0.09 0.11,0.14 0.2,0.14 0.03,0 0.06,-0.01 0.09,-0.03 0.04,-0.02 0.08,-0.03 0.11,-0.05l0.21 0.64c-0.2,0.18 -0.37,0.3 -0.5,0.39 -0.13,0.09 -0.23,0.14 -0.3,0.14 -0.16,0 -0.3,-0.06 -0.41,-0.19 -0.11,-0.12 -0.19,-0.3 -0.24,-0.54 -0.01,-0.05 -0.03,-0.11 -0.05,-0.17 -0.02,-0.06 -0.05,-0.11 -0.08,-0.17 -0.03,0.05 -0.07,0.11 -0.11,0.17 -0.04,0.07 -0.08,0.13 -0.12,0.2 -0.1,0.15 -0.19,0.3 -0.28,0.45 -0.09,0.15 -0.19,0.3 -0.28,0.44 -0.12,0.2 -0.24,0.34 -0.36,0.42 -0.12,0.09 -0.24,0.13 -0.34,0.13 -0.16,0 -0.29,-0.06 -0.38,-0.19 -0.1,-0.13 -0.16,-0.32 -0.19,-0.58 -0.03,-0.24 -0.05,-0.43 -0.06,-0.57 -0.01,-0.13 -0.01,-0.21 0,-0.24 -0.01,-0.14 -0.02,-0.24 -0.03,-0.31 -0.01,-0.07 -0.03,-0.11 -0.06,-0.11l-0.03 0.02 -0.29 0.41c-0.01,0.04 -0.03,0.08 -0.05,0.13 -0.02,0.05 -0.06,0.1 -0.1,0.17 -0.01,-0.07 -0.04,-0.15 -0.07,-0.26 -0.04,-0.1 -0.08,-0.23 -0.14,-0.38z"/>
    <path class="fil1" d="M155.65 67.21c0.04,-0.07 0.09,-0.15 0.15,-0.24 0.06,-0.09 0.13,-0.2 0.22,-0.33 0.04,-0.13 0.07,-0.29 0.1,-0.49 0.02,-0.19 0.05,-0.42 0.07,-0.69 0.02,-0.26 0.05,-0.5 0.08,-0.7 0.03,-0.2 0.06,-0.36 0.08,-0.48 0.15,-0.66 0.27,-1.17 0.36,-1.54 0.08,-0.36 0.13,-0.58 0.15,-0.64 0.11,-0.43 0.23,-0.81 0.35,-1.15 0.13,-0.33 0.25,-0.62 0.38,-0.87 0.03,-0.05 0.06,-0.1 0.09,-0.16 0.04,-0.05 0.08,-0.11 0.12,-0.17 0.13,-0.08 0.25,-0.15 0.36,-0.23 0.06,-0.04 0.12,-0.07 0.18,-0.09 0.07,-0.02 0.13,-0.04 0.19,-0.04 0.09,0 0.17,0.07 0.22,0.19 0.05,0.12 0.08,0.31 0.08,0.56 0,0.15 -0.02,0.33 -0.05,0.52 -0.03,0.19 -0.07,0.4 -0.13,0.62 -0.08,0.32 -0.14,0.58 -0.19,0.77 -0.04,0.19 -0.07,0.3 -0.08,0.35 -0.01,0.1 -0.04,0.22 -0.1,0.37 -0.05,0.15 -0.12,0.34 -0.2,0.55 -0.11,0.28 -0.19,0.49 -0.25,0.64 -0.06,0.15 -0.09,0.24 -0.1,0.27 -0.03,0.04 -0.05,0.07 -0.08,0.1 -0.02,0.04 -0.05,0.07 -0.08,0.11l0 0.16c-0.01,0.06 -0.03,0.1 -0.05,0.12 -0.06,0.16 -0.13,0.35 -0.23,0.58 -0.1,0.23 -0.22,0.5 -0.36,0.79 -0.08,0.16 -0.15,0.29 -0.19,0.41 -0.04,0.12 -0.06,0.22 -0.06,0.3l0 0.62c0.02,0.12 0.04,0.24 0.06,0.36 0.02,0.13 0.04,0.24 0.06,0.35 0.02,0.15 0.05,0.27 0.1,0.34 0.04,0.08 0.1,0.12 0.16,0.12 0.14,0 0.25,-0.05 0.34,-0.14 0.09,-0.09 0.16,-0.23 0.2,-0.42 -0.09,-0.05 -0.16,-0.11 -0.21,-0.18 -0.05,-0.06 -0.07,-0.13 -0.07,-0.21 0.01,-0.05 0.03,-0.1 0.04,-0.16 0.01,-0.05 0.02,-0.11 0.04,-0.17 0,-0.03 0.01,-0.07 0.02,-0.1 0,-0.03 0.01,-0.07 0.01,-0.13 0.16,-0.39 0.3,-0.69 0.43,-0.89 0.13,-0.19 0.25,-0.3 0.35,-0.3 0.02,0 0.06,0.01 0.12,0.02 0.05,0.01 0.09,0.02 0.12,0.02 0.02,0 0.05,-0.01 0.1,-0.03 0.04,-0.01 0.07,-0.02 0.09,-0.02 0.06,0 0.1,0.03 0.12,0.08 0.03,0.05 0.04,0.13 0.04,0.22 0,0.2 -0.04,0.42 -0.13,0.65 -0.08,0.23 -0.12,0.36 -0.12,0.4 0,0.03 0.01,0.06 0.04,0.09 0.02,-0.01 0.04,-0.03 0.06,-0.04 0.02,-0.02 0.04,-0.05 0.06,-0.07 0.02,0.06 0.04,0.13 0.07,0.21 0.03,0.08 0.06,0.17 0.1,0.27 0.01,0.04 0.03,0.06 0.03,0.09 0.01,0.03 0.01,0.05 0.01,0.07 -0.14,0.21 -0.27,0.36 -0.37,0.47 -0.11,0.11 -0.21,0.17 -0.28,0.18 -0.03,0 -0.06,0 -0.09,0 -0.03,-0.01 -0.07,-0.01 -0.12,-0.02 -0.05,0.09 -0.11,0.18 -0.17,0.28 -0.07,0.1 -0.14,0.23 -0.23,0.37 -0.03,0.03 -0.07,0.07 -0.12,0.13 -0.05,0.06 -0.11,0.12 -0.18,0.2 -0.1,0.14 -0.19,0.24 -0.29,0.3 -0.1,0.07 -0.2,0.1 -0.3,0.1 -0.04,0 -0.08,-0.01 -0.13,-0.03 -0.04,-0.01 -0.09,-0.04 -0.14,-0.09 -0.04,-0.03 -0.09,-0.07 -0.13,-0.12 -0.05,-0.05 -0.1,-0.11 -0.15,-0.17 -0.07,-0.29 -0.12,-0.56 -0.15,-0.8 -0.03,-0.25 -0.05,-0.48 -0.05,-0.7 0,-0.04 0,-0.07 -0.01,-0.1 0,-0.02 -0.01,-0.05 -0.02,-0.07l-0.04 -0.02 -0.04 0.02 -0.05 0.07c-0.03,-0.1 -0.06,-0.2 -0.1,-0.31 -0.03,-0.11 -0.07,-0.22 -0.11,-0.33zm2.37 -5.72c0,-0.02 0,-0.04 0,-0.06 -0.01,-0.01 -0.02,-0.03 -0.03,-0.04 -0.02,-0.01 -0.05,0.02 -0.07,0.09 -0.03,0.07 -0.06,0.17 -0.08,0.29 -0.02,0.1 -0.05,0.21 -0.09,0.34 -0.05,0.12 -0.11,0.27 -0.19,0.44 -0.06,0.16 -0.13,0.32 -0.19,0.51 -0.06,0.18 -0.12,0.38 -0.18,0.6 -0.08,0.25 -0.14,0.48 -0.18,0.67 -0.03,0.19 -0.05,0.35 -0.05,0.46l0.01 0.07c0.03,-0.02 0.07,-0.11 0.13,-0.28 0.07,-0.16 0.15,-0.4 0.25,-0.71 0.1,-0.27 0.17,-0.48 0.21,-0.64 0.05,-0.15 0.08,-0.26 0.09,-0.31 0.03,-0.12 0.06,-0.27 0.1,-0.44 0.03,-0.17 0.08,-0.36 0.12,-0.57 0.04,-0.08 0.07,-0.14 0.09,-0.2 0.02,-0.04 0.04,-0.08 0.05,-0.11 0.01,-0.04 0.01,-0.08 0.01,-0.11zm0.86 5.41l0.47 -0.42c0.02,-0.02 0.04,-0.05 0.06,-0.09 0.02,-0.04 0.05,-0.1 0.08,-0.17 0.03,-0.07 0.06,-0.12 0.1,-0.16 0.03,-0.04 0.08,-0.08 0.13,-0.11 0.03,-0.05 0.07,-0.11 0.12,-0.18 0.05,-0.07 0.12,-0.15 0.19,-0.24 0.04,-0.03 0.09,-0.07 0.15,-0.13 0.06,-0.05 0.12,-0.12 0.19,-0.21 0.31,-0.41 0.58,-0.71 0.81,-0.91 0.24,-0.2 0.43,-0.3 0.6,-0.3 0.08,0 0.15,0.02 0.19,0.07 0.04,0.06 0.07,0.13 0.07,0.22 0,0.1 -0.02,0.19 -0.04,0.26 -0.03,0.08 -0.07,0.14 -0.12,0.19 -0.09,0.09 -0.18,0.18 -0.28,0.29 -0.05,0.09 -0.12,0.2 -0.2,0.31 -0.08,0.11 -0.17,0.22 -0.28,0.32 -0.03,0.07 -0.06,0.12 -0.08,0.17 -0.02,0.02 -0.05,0.06 -0.1,0.12 -0.05,0.07 -0.11,0.13 -0.19,0.21 -0.03,0.11 -0.11,0.24 -0.22,0.41 -0.12,0.16 -0.27,0.36 -0.46,0.59 -0.02,0.03 -0.07,0.1 -0.13,0.22 -0.06,0.12 -0.14,0.27 -0.24,0.47l0.04 0.06c0.07,-0.03 0.15,-0.09 0.23,-0.17 0.09,-0.08 0.18,-0.18 0.28,-0.31 0.11,-0.15 0.21,-0.27 0.28,-0.36 0.07,-0.09 0.13,-0.15 0.16,-0.18 0.02,-0.02 0.04,-0.04 0.07,-0.06 0.02,-0.01 0.05,-0.04 0.08,-0.07 0.16,-0.25 0.3,-0.45 0.44,-0.57 0.13,-0.12 0.26,-0.19 0.38,-0.19 0.07,0 0.12,0.04 0.16,0.12 0.04,0.08 0.06,0.19 0.07,0.35 -0.01,0.23 -0.01,0.46 -0.01,0.67 -0.01,0.15 0.02,0.29 0.09,0.41 0.06,0.12 0.14,0.18 0.24,0.18 0.03,0 0.06,-0.01 0.09,-0.04 0.03,-0.02 0.06,-0.05 0.09,-0.09 0.03,-0.04 0.05,-0.09 0.07,-0.12 0.02,-0.04 0.04,-0.08 0.07,-0.12 0.01,-0.01 0.03,-0.02 0.06,-0.05 0.02,-0.02 0.05,-0.05 0.07,-0.08 0.05,0.14 0.09,0.26 0.12,0.37 0.04,0.1 0.06,0.2 0.08,0.27 -0.08,0.1 -0.16,0.21 -0.23,0.31 -0.08,0.11 -0.16,0.21 -0.25,0.3 -0.1,0.11 -0.2,0.19 -0.29,0.25 -0.1,0.06 -0.19,0.08 -0.29,0.08 -0.22,0 -0.39,-0.08 -0.51,-0.26 -0.12,-0.17 -0.19,-0.44 -0.21,-0.79 0,-0.04 -0.01,-0.08 -0.01,-0.13 -0.01,-0.04 -0.03,-0.09 -0.06,-0.13 -0.02,0.02 -0.03,0.04 -0.05,0.07 -0.02,0.03 -0.05,0.06 -0.08,0.1 -0.04,0.05 -0.1,0.11 -0.16,0.18 -0.07,0.07 -0.15,0.15 -0.24,0.25 -0.12,0.17 -0.22,0.31 -0.3,0.42 -0.08,0.1 -0.14,0.18 -0.17,0.23 -0.07,0.08 -0.15,0.16 -0.24,0.24 -0.09,0.08 -0.2,0.16 -0.31,0.24 -0.07,0.06 -0.13,0.1 -0.18,0.13 -0.05,0.03 -0.09,0.04 -0.12,0.04 -0.16,0 -0.28,-0.05 -0.36,-0.16 -0.08,-0.11 -0.12,-0.28 -0.12,-0.52 0,-0.12 0.02,-0.24 0.06,-0.36 0.04,-0.12 0.1,-0.23 0.18,-0.34 0.01,-0.06 0.01,-0.11 0.01,-0.15 0,-0.02 0,-0.04 -0.01,-0.07 -0.01,-0.02 -0.02,-0.05 -0.03,-0.08 -0.02,-0.07 -0.05,-0.15 -0.07,-0.23 -0.03,-0.08 -0.05,-0.17 -0.09,-0.26 0.02,-0.02 0.04,-0.06 0.06,-0.11 0.03,-0.05 0.06,-0.12 0.09,-0.2zm9.1 0.87c-0.06,0.08 -0.13,0.16 -0.2,0.24 -0.06,0.08 -0.13,0.15 -0.19,0.22 -0.1,0.1 -0.21,0.19 -0.31,0.28 -0.1,0.09 -0.19,0.15 -0.29,0.2 -0.1,0.04 -0.19,0.06 -0.28,0.06 -0.1,0.01 -0.17,-0.01 -0.22,-0.05 -0.06,-0.04 -0.1,-0.1 -0.13,-0.18 -0.02,-0.08 -0.03,-0.17 -0.03,-0.27 0,-0.12 0.01,-0.24 0.03,-0.37 0.02,-0.13 0.05,-0.25 0.08,-0.38 0.02,-0.06 0.03,-0.13 0.06,-0.21 0.02,-0.08 0.04,-0.16 0.06,-0.23 0.05,-0.14 0.08,-0.27 0.11,-0.38 0.02,-0.11 0.03,-0.18 0.01,-0.19 -0.02,-0.01 -0.06,0.02 -0.11,0.08 -0.06,0.06 -0.12,0.14 -0.19,0.24 -0.06,0.09 -0.13,0.2 -0.21,0.31 -0.07,0.12 -0.15,0.24 -0.23,0.37 -0.06,0.1 -0.13,0.21 -0.21,0.34 -0.07,0.12 -0.14,0.25 -0.21,0.37 -0.04,0.05 -0.06,0.11 -0.08,0.18 -0.03,0.07 -0.05,0.13 -0.08,0.17 -0.05,0.1 -0.11,0.18 -0.16,0.23 -0.06,0.05 -0.1,0.1 -0.11,0.13 -0.07,0.09 -0.15,0.11 -0.24,0.05 -0.1,-0.06 -0.15,-0.15 -0.14,-0.25 0,-0.03 -0.01,-0.06 -0.03,-0.09 -0.01,-0.03 -0.02,-0.07 -0.02,-0.11 0,-0.07 0.02,-0.14 0.05,-0.23 0.02,-0.08 0.04,-0.16 0.04,-0.24 0,-0.08 0,-0.16 0.01,-0.24 0.01,-0.09 0.02,-0.17 0.02,-0.26 0,-0.11 0.01,-0.22 0.01,-0.33 0.01,-0.12 0.01,-0.23 0.01,-0.33 0,-0.09 0,-0.17 -0.01,-0.26 -0.01,-0.08 -0.02,-0.16 -0.02,-0.25 0,-0.11 0.01,-0.22 0.02,-0.33 0.02,-0.11 0.03,-0.2 0.03,-0.26 0,-0.04 -0.01,-0.06 -0.03,-0.06 -0.02,0 -0.04,0.03 -0.05,0.08 -0.02,0.06 -0.03,0.14 -0.03,0.23 0,0.1 -0.01,0.19 -0.03,0.27 -0.04,0.13 -0.08,0.28 -0.13,0.43 -0.05,0.16 -0.09,0.31 -0.14,0.47 -0.03,0.1 -0.06,0.2 -0.1,0.3 -0.03,0.1 -0.06,0.21 -0.1,0.3 -0.02,0.08 -0.06,0.15 -0.11,0.21 -0.04,0.06 -0.08,0.13 -0.1,0.19 -0.02,0.07 -0.04,0.15 -0.05,0.24 -0.02,0.08 -0.04,0.16 -0.06,0.22 -0.04,0.09 -0.07,0.18 -0.11,0.27 -0.04,0.1 -0.08,0.18 -0.11,0.25 -0.04,0.09 -0.09,0.16 -0.14,0.22 -0.05,0.05 -0.09,0.1 -0.13,0.15 -0.05,0.04 -0.1,0.06 -0.17,0.06 -0.07,0 -0.13,0 -0.17,0 -0.03,0 -0.07,-0.01 -0.1,-0.02 -0.03,-0.01 -0.07,-0.03 -0.1,-0.06 -0.03,-0.03 -0.06,-0.06 -0.08,-0.11 -0.03,-0.04 -0.05,-0.1 -0.08,-0.17 -0.01,-0.03 -0.02,-0.08 -0.05,-0.13 -0.02,-0.05 -0.04,-0.11 -0.05,-0.18 -0.01,-0.07 -0.02,-0.15 -0.02,-0.25 -0.01,-0.09 -0.01,-0.2 -0.01,-0.31 0,-0.09 0.01,-0.19 0.02,-0.31 0.01,-0.11 0.02,-0.23 0.02,-0.36 0,-0.07 0.01,-0.16 0.02,-0.25 0.01,-0.09 0.02,-0.18 0.03,-0.27 0.01,-0.08 0.08,-0.11 0.22,-0.08 0.13,0.03 0.19,0.07 0.18,0.1 0,0.03 0,0.06 0,0.11 -0.01,0.05 -0.01,0.1 -0.01,0.16 0,0.08 0.01,0.18 0.02,0.28 0,0.11 0.02,0.21 0.03,0.29 0.02,0.08 0.04,0.15 0.06,0.2 0.03,0.06 0.06,0.08 0.1,0.08 0.04,0 0.08,-0.01 0.12,-0.05 0.05,-0.04 0.09,-0.09 0.13,-0.15 0.03,-0.04 0.05,-0.1 0.08,-0.17 0.04,-0.06 0.06,-0.13 0.09,-0.21 0.02,-0.06 0.04,-0.12 0.06,-0.2 0.01,-0.07 0.03,-0.15 0.05,-0.22 0.03,-0.07 0.05,-0.14 0.08,-0.22 0.02,-0.07 0.04,-0.14 0.06,-0.21 0.01,-0.03 0.02,-0.06 0.05,-0.1 0.02,-0.04 0.03,-0.07 0.04,-0.1 0.01,-0.05 0.02,-0.09 0.02,-0.14 0.01,-0.04 0.01,-0.08 0.03,-0.12 0.01,-0.05 0.02,-0.1 0.03,-0.16 0,-0.06 0.01,-0.11 0.02,-0.17 0.01,-0.05 0.03,-0.1 0.06,-0.16 0.02,-0.05 0.04,-0.1 0.05,-0.15 0.01,-0.04 0.02,-0.08 0.05,-0.11 0.02,-0.03 0.03,-0.07 0.04,-0.11 0.01,-0.05 0.02,-0.09 0.02,-0.15 0,-0.06 0.01,-0.11 0.01,-0.15 0.02,-0.07 0.03,-0.14 0.05,-0.21 0.02,-0.08 0.03,-0.15 0.05,-0.22 0.01,-0.06 0.03,-0.13 0.04,-0.19 0.01,-0.07 0.02,-0.12 0.04,-0.18 0,-0.04 0.03,-0.07 0.08,-0.12 0.05,-0.05 0.11,-0.09 0.16,-0.13 0.04,-0.03 0.09,-0.06 0.14,-0.1 0.05,-0.03 0.11,-0.06 0.16,-0.08 0.05,-0.02 0.1,-0.04 0.16,-0.05 0.06,-0.01 0.12,-0.01 0.16,0 0.04,0.01 0.08,0.03 0.12,0.06 0.03,0.04 0.05,0.08 0.05,0.13 0.01,0.07 0.01,0.15 0.01,0.25 0,0.08 0,0.18 0,0.27 0,0.09 0,0.17 0.01,0.27 0.01,0.09 0.01,0.19 0.01,0.28 0,0.12 0,0.21 0,0.28 0,0.06 0,0.14 -0.01,0.26 0,0.12 -0.01,0.24 -0.02,0.35 -0.02,0.12 -0.02,0.22 -0.02,0.31 0,0.13 0.01,0.28 0.03,0.45 0.09,-0.09 0.17,-0.18 0.23,-0.28 0.01,-0.02 0.03,-0.03 0.06,-0.04 0.02,-0.01 0.04,-0.04 0.06,-0.06 0.01,-0.02 0.02,-0.05 0.04,-0.09 0.01,-0.04 0.02,-0.07 0.04,-0.1 0.02,-0.02 0.05,-0.05 0.08,-0.08 0.03,-0.02 0.06,-0.05 0.08,-0.08 0.02,-0.03 0.03,-0.07 0.05,-0.12 0.01,-0.04 0.02,-0.08 0.05,-0.11 0.03,-0.05 0.06,-0.1 0.09,-0.15 0.03,-0.05 0.07,-0.1 0.11,-0.16 0.05,-0.09 0.11,-0.16 0.16,-0.23 0.06,-0.07 0.11,-0.15 0.16,-0.23 0.07,-0.12 0.13,-0.21 0.17,-0.29 0.03,-0.07 0.08,-0.15 0.13,-0.24 0.01,-0.02 0.06,-0.04 0.16,-0.06 0.1,-0.01 0.18,-0.01 0.24,0 0.06,0.02 0.11,0.05 0.16,0.09 0.04,0.05 0.05,0.12 0.03,0.2 -0.01,0.04 -0.03,0.12 -0.06,0.21 -0.02,0.1 -0.06,0.22 -0.09,0.34 -0.02,0.06 -0.03,0.12 -0.06,0.2 -0.02,0.07 -0.04,0.15 -0.06,0.23 -0.02,0.08 -0.04,0.17 -0.06,0.25 -0.03,0.09 -0.04,0.16 -0.05,0.22 -0.03,0.11 -0.06,0.22 -0.08,0.33 -0.02,0.1 -0.04,0.2 -0.05,0.3 -0.02,0.16 -0.03,0.31 -0.03,0.42 0,0.12 0.02,0.19 0.06,0.22 0.03,0.02 0.08,0.01 0.14,-0.03 0.06,-0.04 0.13,-0.09 0.21,-0.17 0.03,-0.04 0.07,-0.09 0.12,-0.13 0.04,-0.06 0.07,-0.11 0.11,-0.16l0.21 0.64zm-0.26 -0.56c0.02,-0.02 0.03,-0.04 0.04,-0.05 0.01,-0.02 0.01,-0.05 0.01,-0.07 0.06,-0.07 0.13,-0.16 0.2,-0.27 0.07,-0.12 0.16,-0.25 0.25,-0.4 0.08,-0.14 0.15,-0.28 0.23,-0.42 0.08,-0.15 0.17,-0.29 0.26,-0.43 0.08,-0.14 0.15,-0.29 0.22,-0.44 0.08,-0.15 0.16,-0.3 0.24,-0.44 0.14,-0.1 0.24,-0.16 0.32,-0.2 0.07,-0.03 0.12,-0.05 0.15,-0.05 0.05,0 0.09,0.02 0.12,0.07 0.02,0.04 0.04,0.1 0.04,0.19 0,0.03 -0.01,0.07 -0.02,0.12 -0.01,0.05 -0.02,0.11 -0.03,0.17 -0.03,0.09 -0.05,0.19 -0.08,0.29 -0.03,0.16 -0.06,0.33 -0.1,0.49 -0.04,0.17 -0.08,0.33 -0.11,0.49 -0.03,0.2 -0.06,0.38 -0.08,0.55 -0.02,0.17 -0.03,0.33 -0.03,0.47 0,0.26 0.01,0.45 0.03,0.58 0.02,0.13 0.05,0.18 0.08,0.17 0.03,-0.03 0.08,-0.06 0.13,-0.1 0.05,-0.04 0.11,-0.09 0.18,-0.14 0.06,-0.09 0.13,-0.2 0.21,-0.33 0.07,-0.13 0.16,-0.29 0.27,-0.47 0.07,-0.13 0.13,-0.25 0.19,-0.38 0.03,-0.04 0.05,-0.08 0.09,-0.14 0.03,-0.05 0.06,-0.1 0.09,-0.15 0.06,-0.23 0.14,-0.39 0.22,-0.5 0.08,-0.12 0.17,-0.17 0.26,-0.17 0.09,0 0.16,0.02 0.22,0.04 0.05,0.04 0.09,0.08 0.11,0.14 0.01,0.04 0.02,0.09 0.02,0.17 0.01,0.08 0.01,0.19 0.01,0.32 0,0.05 0.01,0.13 0.03,0.23 0.01,0.09 0.02,0.17 0.02,0.21 0,0.18 0.02,0.31 0.07,0.39 0.04,0.09 0.11,0.14 0.2,0.14 0.03,0 0.06,-0.01 0.1,-0.03 0.03,-0.02 0.07,-0.03 0.11,-0.05l0.21 0.64c-0.21,0.18 -0.38,0.3 -0.51,0.39 -0.13,0.09 -0.23,0.14 -0.29,0.14 -0.17,0 -0.31,-0.06 -0.42,-0.19 -0.11,-0.12 -0.19,-0.3 -0.24,-0.54 -0.01,-0.05 -0.03,-0.11 -0.05,-0.17 -0.02,-0.06 -0.05,-0.11 -0.08,-0.17 -0.03,0.05 -0.07,0.11 -0.11,0.17 -0.04,0.07 -0.08,0.13 -0.12,0.2 -0.1,0.15 -0.19,0.3 -0.28,0.45 -0.09,0.15 -0.19,0.3 -0.28,0.44 -0.12,0.2 -0.24,0.34 -0.36,0.42 -0.12,0.09 -0.24,0.13 -0.34,0.13 -0.16,0 -0.29,-0.06 -0.38,-0.19 -0.1,-0.13 -0.16,-0.32 -0.19,-0.58 -0.03,-0.24 -0.05,-0.43 -0.06,-0.57 -0.01,-0.13 -0.01,-0.21 0,-0.24 -0.01,-0.14 -0.02,-0.24 -0.03,-0.31 -0.01,-0.07 -0.03,-0.11 -0.06,-0.11l-0.03 0.02 -0.29 0.41c-0.01,0.04 -0.03,0.08 -0.05,0.13 -0.02,0.05 -0.06,0.1 -0.1,0.17 -0.01,-0.07 -0.03,-0.15 -0.07,-0.26 -0.03,-0.1 -0.08,-0.23 -0.14,-0.38z"/>
   </g>
  </g>
 </g>
</svg>
