<?xml version="1.0" encoding="UTF-8"?>
<!DOCTYPE svg PUBLIC "-//W3C//DTD SVG 1.1//EN" "http://www.w3.org/Graphics/SVG/1.1/DTD/svg11.dtd">
<!-- Creator: CorelDRAW 2019 (64-Bit) -->
<svg xmlns="http://www.w3.org/2000/svg" xml:space="preserve" width="300px" height="94px" version="1.1" style="shape-rendering:geometricPrecision; text-rendering:geometricPrecision; image-rendering:optimizeQuality; fill-rule:evenodd; clip-rule:evenodd"
viewBox="0 0 66.51 20.83"
 xmlns:xlink="http://www.w3.org/1999/xlink">
 <defs>
  <style type="text/css">
   <![CDATA[
    .fil2 {fill:#FEFEFE}
    .fil0 {fill:#D5262B}
    .fil1 {fill:#2B2A29;fill-rule:nonzero}
   ]]>
  </style>
 </defs>
 <g id="Layer_x0020_1">
  <metadata id="CorelCorpID_0Corel-Layer"/>
  <g id="_2204240867200">
   <path class="fil0" d="M33.49 4.11c4.75,0 8.61,3.86 8.61,8.62 0,3.73 -2.37,6.91 -5.7,8.1l-5.83 0c-3.32,-1.19 -5.7,-4.37 -5.7,-8.1 0,-4.76 3.86,-8.62 8.62,-8.62z"/>
   <path class="fil1" d="M0 16.86c1.59,1 3.17,1.5 4.72,1.5 2,0 3.01,-0.57 3.01,-1.71 0,-0.79 -0.8,-1.45 -2.38,-1.99 -2.32,-0.78 -3.79,-1.55 -4.41,-2.3 -0.63,-0.76 -0.94,-1.72 -0.94,-2.9 0,-1.55 0.63,-2.77 1.9,-3.66 1.28,-0.89 2.91,-1.33 4.91,-1.33 1.39,0 2.78,0.22 4.17,0.66l0 3.49c-1.25,-0.75 -2.63,-1.12 -4.13,-1.12 -0.79,0 -1.42,0.15 -1.91,0.44 -0.47,0.3 -0.71,0.7 -0.71,1.18 0,0.82 0.67,1.46 2.01,1.93 1.53,0.55 2.64,1.01 3.36,1.39 0.72,0.37 1.27,0.88 1.68,1.52 0.4,0.65 0.6,1.41 0.6,2.28 0,1.64 -0.66,2.9 -1.96,3.81 -0.47,0.31 -0.98,0.58 -1.54,0.78l-7.59 0c-0.27,-0.08 -0.54,-0.18 -0.79,-0.28l0 -3.69zm24.13 3.97l-5.73 0c-1.52,-0.76 -2.27,-2.33 -2.27,-4.7l0 -8.02 -2.68 0 0 -3.25 2.68 0 0 -3.62 4.27 -1.24 0 4.86 3.73 0 0 3.25 -3.73 0 0 7.27c0,1.78 0.7,2.67 2.11,2.67 0.58,0 1.12,-0.16 1.62,-0.49l0 3.27z"/>
   <polygon class="fil0" points="37.93,13.06 42.08,13.06 42.08,20.83 37.93,20.83 "/>
   <path class="fil2" d="M34.59 8.99c2.88,0 5.22,2.34 5.22,5.22 0,2.89 -2.34,5.22 -5.22,5.22 -2.89,0 -5.22,-2.33 -5.22,-5.22 0,-2.88 2.33,-5.22 5.22,-5.22z"/>
   <path class="fil1" d="M53.99 8.8c-0.57,-0.34 -1.26,-0.5 -2.08,-0.5 -1.07,0 -1.93,0.44 -2.58,1.31 -0.64,0.88 -0.97,2.05 -0.97,3.53l0 7.69 -4.28 0 0 -15.97 4.28 0 0 3.1 0.05 0c0.79,-2.26 2.21,-3.38 4.25,-3.38 0.59,0 1.03,0.07 1.33,0.21l0 4.01zm12.52 12.03l-5.74 0c-1.51,-0.76 -2.26,-2.33 -2.26,-4.7l0 -8.02 -2.68 0 0 -3.25 2.68 0 0 -3.62 4.26 -1.24 0 4.86 3.74 0 0 3.25 -3.74 0 0 7.27c0,1.78 0.71,2.67 2.11,2.67 0.58,0 1.12,-0.16 1.63,-0.49l0 3.27z"/>
  </g>
 </g>
</svg>
