<!DOCTYPE svg PUBLIC "-//W3C//DTD SVG 20010904//EN" "http://www.w3.org/TR/2001/REC-SVG-20010904/DTD/svg10.dtd">
<svg version="1.0" xmlns="http://www.w3.org/2000/svg" width="370px" height="135px" viewBox="0 0 3700 1350" preserveAspectRatio="xMidYMid meet">
<g id="layer101" fill="#1b1814" stroke="none">
 <path d="M0 675 l0 -675 1850 0 1850 0 0 675 0 675 -1850 0 -1850 0 0 -675z"/>
 </g>
<g id="layer102" fill="#23201c" stroke="none">
 <path d="M0 675 l0 -675 1850 0 1850 0 0 675 0 675 -1850 0 -1850 0 0 -675z m355 515 c19 -5 -10 -8 -80 -8 -72 1 -98 3 -75 8 46 10 117 10 155 0z m880 1 c33 -7 25 -9 -45 -9 -59 0 -76 3 -55 8 40 10 53 10 100 1z m2330 0 c33 -7 25 -9 -45 -9 -59 0 -76 3 -55 8 40 10 53 10 100 1z m-3410 -11 c3 -6 -4 -10 -17 -10 -18 0 -20 2 -8 10 19 12 18 12 25 0z m272 -6 c-3 -3 -12 -4 -19 -1 -8 3 -5 6 6 6 11 1 17 -2 13 -5z m670 0 c-3 -3 -12 -4 -19 -1 -8 3 -5 6 6 6 11 1 17 -2 13 -5z m210 0 c-3 -3 -12 -4 -19 -1 -8 3 -5 6 6 6 11 1 17 -2 13 -5z m2120 0 c-3 -3 -12 -4 -19 -1 -8 3 -5 6 6 6 11 1 17 -2 13 -5z m210 0 c-3 -3 -12 -4 -19 -1 -8 3 -5 6 6 6 11 1 17 -2 13 -5z m-3530 -10 c-3 -3 -12 -4 -19 -1 -8 3 -5 6 6 6 11 1 17 -2 13 -5z m360 0 c-3 -3 -12 -4 -19 -1 -8 3 -5 6 6 6 11 1 17 -2 13 -5z m873 -79 c0 -77 -8 -102 -25 -75 -3 6 -1 10 5 10 8 0 11 24 8 75 -2 41 0 75 5 75 4 0 7 -38 7 -85z m1228 78 l-108 -4 -3 -432 -2 -432 -3 438 -2 437 113 -2 112 -2 -107 -3z m1104 -78 c2 -61 0 -85 -9 -85 -6 0 -15 5 -18 10 -3 6 -1 10 5 10 8 0 11 24 8 75 -2 41 0 75 4 75 3 0 8 -38 10 -85z m-3605 68 c-4 -3 -10 -3 -14 0 -3 4 0 7 7 7 7 0 10 -3 7 -7z m-27 -92 c0 -50 -5 -93 -10 -96 -6 -4 -10 28 -10 89 0 57 4 96 10 96 6 0 10 -36 10 -89z m980 85 c0 -3 -5 -8 -12 -12 -7 -4 -8 -3 -4 4 7 12 16 16 16 8z m2330 0 c0 -3 -5 -8 -12 -12 -7 -4 -8 -3 -4 4 7 12 16 16 16 8z m-2754 -58 l29 -33 -32 29 c-31 28 -38 36 -30 36 2 0 16 -15 33 -32z m384 18 c0 -3 -5 -8 -12 -12 -7 -4 -8 -3 -4 4 7 12 16 16 16 8z m2330 0 c0 -3 -5 -8 -12 -12 -7 -4 -8 -3 -4 4 7 12 16 16 16 8z m-2984 -65 c-3 -4 -24 -8 -46 -8 -22 0 -43 4 -46 8 -3 5 18 9 46 9 28 0 49 -4 46 -9z m309 -1 c3 -5 4 -10 1 -10 -3 0 -8 5 -11 10 -3 6 -4 10 -1 10 3 0 8 -4 11 -10z m-428 -6 c-3 -3 -12 -4 -19 -1 -8 3 -5 6 6 6 11 1 17 -2 13 -5z m170 0 c-3 -3 -12 -4 -19 -1 -8 3 -5 6 6 6 11 1 17 -2 13 -5z m560 -11 c-4 -3 -7 0 -7 7 0 7 3 10 7 7 3 -4 3 -10 0 -14z m2326 -36 c-3 -27 -9 -45 -14 -40 -4 4 -3 27 3 51 14 54 18 50 11 -11z m-3108 33 c-27 -12 -43 -12 -25 0 8 5 22 9 30 9 10 0 8 -3 -5 -9z m1128 3 c-13 -2 -33 -2 -45 0 -13 2 -3 4 22 4 25 0 35 -2 23 -4z m2330 0 c-13 -2 -33 -2 -45 0 -13 2 -3 4 22 4 25 0 35 -2 23 -4z m-2966 -20 c-4 -3 -7 0 -7 7 0 7 3 10 7 7 3 -4 3 -10 0 -14z m563 13 c0 -2 -7 -7 -16 -10 -8 -3 -12 -2 -9 4 6 10 25 14 25 6z m-1103 -13 c-4 -3 -10 -3 -14 0 -3 4 0 7 7 7 7 0 10 -3 7 -7z m823 -19 c0 -14 -4 -23 -9 -20 -5 3 -7 15 -4 26 7 28 13 25 13 -6z m-273 -16 c-3 -8 -6 -5 -6 6 -1 11 2 17 5 13 3 -3 4 -12 1 -19z m-200 -45 c-3 -10 -5 -2 -5 17 0 19 2 27 5 18 2 -10 2 -26 0 -35z m3020 20 c-4 -3 -7 0 -7 7 0 7 3 10 7 7 3 -4 3 -10 0 -14z m-2340 -50 c-3 -10 -5 -2 -5 17 0 19 2 27 5 18 2 -10 2 -26 0 -35z m-470 15 c-3 -8 -6 -5 -6 6 -1 11 2 17 5 13 3 -3 4 -12 1 -19z m2800 -15 c-3 -10 -5 -4 -5 12 0 17 2 24 5 18 2 -7 2 -21 0 -30z m-3017 4 c0 -2 -10 -12 -22 -23 l-23 -19 19 23 c18 21 26 27 26 19z m208 -52 c-14 -31 -18 -28 -11 7 3 15 9 25 14 23 4 -3 3 -17 -3 -30z m-311 -22 c-4 -3 -10 -3 -14 0 -3 4 0 7 7 7 7 0 10 -3 7 -7z m-30 -10 c-4 -3 -10 -3 -14 0 -3 4 0 7 7 7 7 0 10 -3 7 -7z m-30 -10 c-4 -3 -10 -3 -14 0 -3 4 0 7 7 7 7 0 10 -3 7 -7z m-50 -20 c-4 -3 -10 -3 -14 0 -3 4 0 7 7 7 7 0 10 -3 7 -7z m383 -6 c0 -2 -12 -14 -27 -28 l-28 -24 24 28 c23 25 31 32 31 24z m-500 -51 c0 -3 -5 -8 -12 -12 -7 -4 -8 -3 -4 4 7 12 16 16 16 8z m2557 -63 c-3 -10 -5 -2 -5 17 0 19 2 27 5 18 2 -10 2 -26 0 -35z m-2597 23 c0 -3 -5 -8 -12 -12 -7 -4 -8 -3 -4 4 7 12 16 16 16 8z m377 -13 c-4 -3 -10 -3 -14 0 -3 4 0 7 7 7 7 0 10 -3 7 -7z m-50 -20 c-4 -3 -10 -3 -14 0 -3 4 0 7 7 7 7 0 10 -3 7 -7z m-30 -10 c-4 -3 -10 -3 -14 0 -3 4 0 7 7 7 7 0 10 -3 7 -7z m-330 -20 c-4 -3 -7 0 -7 7 0 7 3 10 7 7 3 -4 3 -10 0 -14z m2640 -5 c-3 -8 -6 -5 -6 6 -1 11 2 17 5 13 3 -3 4 -12 1 -19z m-2628 -177 c8 -14 9 -21 2 -17 -19 12 -43 114 -35 149 7 28 9 23 14 -38 4 -38 12 -81 19 -94z m221 155 c0 -3 -5 -8 -12 -12 -7 -4 -8 -3 -4 4 7 12 16 16 16 8z m-33 -88 c-2 -13 -4 -5 -4 17 -1 22 1 32 4 23 2 -10 2 -28 0 -40z m2478 42 c3 -5 4 -10 1 -10 -3 0 -8 5 -11 10 -3 6 -4 10 -1 10 3 0 8 -4 11 -10z m265 -155 c0 -58 -4 -105 -9 -105 -9 0 -20 197 -12 206 16 15 21 -9 21 -101z m-2370 -3 l0 -88 -27 -1 c-26 -2 -27 -1 -5 7 20 9 22 16 22 90 0 44 2 80 5 80 3 0 5 -40 5 -88z m2207 81 c-4 -3 -10 -3 -14 0 -3 4 0 7 7 7 7 0 10 -3 7 -7z m78 -3 c4 -6 -7 -10 -25 -10 -18 0 -29 4 -25 10 3 6 15 10 25 10 10 0 22 -4 25 -10z m42 3 c-4 -3 -10 -3 -14 0 -3 4 0 7 7 7 7 0 10 -3 7 -7z m-2350 -10 c-4 -3 -10 -3 -14 0 -3 4 0 7 7 7 7 0 10 -3 7 -7z m251 -11 l-68 -3 0 -74 c0 -41 -4 -77 -10 -80 -10 -6 -15 156 -6 166 2 2 37 2 78 -1 l73 -5 -67 -3z m490 -69 l-2 -88 -3 78 -4 77 -97 2 -97 2 100 6 c55 3 101 7 103 8 1 1 1 -37 0 -85z m1840 69 l-68 -3 0 -74 c0 -41 -4 -77 -10 -80 -10 -6 -15 156 -6 166 2 2 37 2 78 -1 l73 -5 -67 -3z m492 -74 l-5 -83 -3 78 -3 77 -97 2 -97 2 100 5 c55 3 102 5 105 4 3 0 3 -39 0 -85z m-3123 65 c-4 -3 -10 -3 -14 0 -3 4 0 7 7 7 7 0 10 -3 7 -7z m-220 -10 c-4 -3 -10 -3 -14 0 -3 4 0 7 7 7 7 0 10 -3 7 -7z m186 0 c-7 -2 -19 -2 -25 0 -7 3 -2 5 12 5 14 0 19 -2 13 -5z m-76 -10 c-20 -2 -52 -2 -70 0 -17 2 0 4 38 4 39 0 53 -2 32 -4z m-331 -45 l29 -33 -32 29 c-18 17 -33 31 -33 33 0 8 8 1 36 -29z m2664 -33 c13 -14 21 -25 18 -25 -2 0 -15 11 -28 25 -13 14 -21 25 -18 25 2 0 15 -11 28 -25z m-2615 -5 c3 -5 4 -10 1 -10 -3 0 -8 5 -11 10 -3 6 -4 10 -1 10 3 0 8 -4 11 -10z m52 -27 c-4 -3 -10 -3 -14 0 -3 4 0 7 7 7 7 0 10 -3 7 -7z m60 -19 c-3 -3 -12 -4 -19 -1 -8 3 -5 6 6 6 11 1 17 -2 13 -5z m286 -1 c-7 -2 -19 -2 -25 0 -7 3 -2 5 12 5 14 0 19 -2 13 -5z m2304 0 c-4 -3 -10 -3 -14 0 -3 4 0 7 7 7 7 0 10 -3 7 -7z m-2511 -12 c-5 -8 -56 -3 -56 5 0 2 14 4 31 4 16 0 28 -4 25 -9z m135 -3 c-23 -6 -37 -6 -44 1 -8 8 2 11 34 10 l44 -1 -34 -10z m2462 5 c-13 -2 -33 -2 -45 0 -13 2 -3 4 22 4 25 0 35 -2 23 -4z m-2006 -190 c-4 -3 -10 -3 -14 0 -3 4 0 7 7 7 7 0 10 -3 7 -7z m2330 0 c-4 -3 -10 -3 -14 0 -3 4 0 7 7 7 7 0 10 -3 7 -7z m-2290 -10 c-4 -3 -10 -3 -14 0 -3 4 0 7 7 7 7 0 10 -3 7 -7z m2330 0 c-4 -3 -10 -3 -14 0 -3 4 0 7 7 7 7 0 10 -3 7 -7z m-2300 -10 c-4 -3 -10 -3 -14 0 -3 4 0 7 7 7 7 0 10 -3 7 -7z m2330 0 c-4 -3 -10 -3 -14 0 -3 4 0 7 7 7 7 0 10 -3 7 -7z m-2290 -9 c-3 -3 -12 -4 -19 -1 -8 3 -5 6 6 6 11 1 17 -2 13 -5z m2330 0 c-3 -3 -12 -4 -19 -1 -8 3 -5 6 6 6 11 1 17 -2 13 -5z m-2300 -11 c-4 -3 -10 -3 -14 0 -3 4 0 7 7 7 7 0 10 -3 7 -7z m2330 0 c-4 -3 -10 -3 -14 0 -3 4 0 7 7 7 7 0 10 -3 7 -7z m-2290 -9 c-3 -3 -12 -4 -19 -1 -8 3 -5 6 6 6 11 1 17 -2 13 -5z m2330 0 c-3 -3 -12 -4 -19 -1 -8 3 -5 6 6 6 11 1 17 -2 13 -5z"/>
 </g>
<g id="layer103" fill="#d33c00" stroke="none">
 <path d="M0 675 l0 -675 1850 0 1850 0 0 675 0 675 -1850 0 -1850 0 0 -675z m465 494 c79 -24 142 -71 175 -129 20 -37 25 -59 25 -120 0 -137 -47 -188 -245 -265 -126 -50 -170 -83 -170 -129 0 -91 160 -123 311 -62 l59 24 0 -93 0 -93 -96 -17 c-219 -40 -409 20 -474 150 -45 92 -27 219 42 281 28 27 119 72 216 109 116 43 156 87 132 145 -17 41 -67 61 -153 62 -82 0 -140 -13 -209 -48 -26 -13 -50 -24 -53 -24 -3 0 -4 44 -3 97 l3 97 45 14 c120 35 282 36 395 1z m845 11 c24 -6 25 -10 28 -94 3 -82 1 -88 -15 -81 -71 28 -140 8 -166 -48 -15 -31 -17 -67 -15 -264 l3 -228 98 0 97 0 0 -87 0 -88 -100 0 -100 0 0 -130 c0 -72 -3 -130 -7 -130 -5 0 -56 14 -115 31 l-108 32 0 98 0 99 -75 0 -76 0 3 86 3 87 70 1 70 1 5 275 c5 235 8 281 23 315 21 46 60 91 99 111 57 30 193 37 278 14z m2330 0 c24 -6 25 -11 30 -93 3 -48 3 -87 1 -87 -2 0 -21 5 -42 12 -30 8 -48 8 -80 -1 -34 -10 -44 -20 -60 -56 -18 -40 -19 -65 -17 -267 l3 -223 100 -1 c55 -1 99 -5 98 -8 -2 -3 -3 -42 -3 -86 l0 -80 -100 0 -100 0 0 -130 c0 -72 -3 -130 -7 -130 -5 0 -56 14 -115 32 l-108 31 0 99 0 98 -75 0 -76 0 3 86 3 87 70 1 70 1 6 270 c3 159 10 284 17 305 15 44 65 106 102 125 59 31 194 38 280 15z m-958 -277 l3 -268 29 -53 c44 -79 75 -97 166 -97 41 0 83 4 93 9 17 8 18 1 15 -100 l-3 -109 -55 -3 c-102 -6 -174 35 -220 124 l-25 49 -3 -82 -3 -83 -114 0 -115 0 0 440 0 440 114 0 115 0 3 -267z"/>
 </g>
<g id="layer104" fill="#ffffff" stroke="none">
 <path d="M0 675 l0 -675 1850 0 1850 0 0 675 0 675 -1850 0 -1850 0 0 -675z m465 494 c79 -24 142 -71 175 -129 20 -37 25 -59 25 -120 0 -137 -47 -188 -245 -265 -126 -50 -170 -83 -170 -129 0 -91 160 -123 311 -62 l59 24 0 -93 0 -93 -96 -17 c-219 -40 -409 20 -474 150 -45 92 -27 219 42 281 28 27 119 72 216 109 116 43 156 87 132 145 -17 41 -67 61 -153 62 -82 0 -140 -13 -209 -48 -26 -13 -50 -24 -53 -24 -3 0 -4 44 -3 97 l3 97 45 14 c120 35 282 36 395 1z m845 11 c24 -6 25 -10 28 -94 3 -82 1 -88 -15 -81 -71 28 -140 8 -166 -48 -15 -31 -17 -67 -15 -264 l3 -228 98 0 97 0 0 -87 0 -88 -100 0 -100 0 0 -130 c0 -72 -3 -130 -7 -130 -5 0 -56 14 -115 31 l-108 32 0 98 0 99 -75 0 -76 0 3 86 3 87 70 1 70 1 5 275 c5 235 8 281 23 315 21 46 60 91 99 111 57 30 193 37 278 14z m2330 0 c24 -6 25 -11 30 -93 3 -48 3 -87 1 -87 -2 0 -21 5 -42 12 -30 8 -48 8 -80 -1 -34 -10 -44 -20 -60 -56 -18 -40 -19 -65 -17 -267 l3 -223 100 -1 c55 -1 99 -5 98 -8 -2 -3 -3 -42 -3 -86 l0 -80 -100 0 -100 0 0 -130 c0 -72 -3 -130 -7 -130 -5 0 -56 14 -115 32 l-108 31 0 99 0 98 -75 0 -76 0 3 86 3 87 70 1 70 1 6 270 c3 159 10 284 17 305 15 44 65 106 102 125 59 31 194 38 280 15z m-1601 -24 c36 -14 66 -26 68 -26 2 0 3 11 3 25 l0 25 111 0 110 0 -3 -293 -3 -293 -38 -78 c-204 -411 -805 -326 -887 125 -36 197 70 407 252 500 111 57 271 63 387 15z m643 -253 l3 -268 29 -53 c44 -79 75 -97 166 -97 41 0 83 4 93 9 17 8 18 1 15 -100 l-3 -109 -55 -3 c-102 -6 -174 35 -220 124 l-25 49 -3 -82 -3 -83 -114 0 -115 0 0 440 0 440 114 0 115 0 3 -267z"/>
 <path d="M1823 1074 c-23 -8 -62 -33 -87 -55 -155 -137 -125 -384 58 -474 147 -72 309 -20 383 124 99 190 -27 408 -241 417 -47 3 -85 -2 -113 -12z"/>
 </g>

</svg>